<?xml version="1.0" encoding="UTF-8"?>
<svg role="img" xmlns="http://www.w3.org/2000/svg" xmlns:xlink="http://www.w3.org/1999/xlink" width="283.877pt" height="150.469pt" viewBox="0 0 283.877 150.469"><style data-diagram-theme>:root{--diagram-ink:#1A1A19;--diagram-paper:#FDFCF9;--diagram-grid:#B5B3AA}@media (prefers-color-scheme:dark){:root{--diagram-ink:#E8E5DD;--diagram-paper:#1A1816;--diagram-grid:#3A3632}}</style><style data-diagram-map>[fill="rgb(93.998718%, 93.998718%, 93.998718%)"]{fill:var(--diagram-paper, rgb(93.998718%, 93.998718%, 93.998718%))}[stroke="rgb(93.998718%, 93.998718%, 93.998718%)"]{stroke:var(--diagram-paper, rgb(93.998718%, 93.998718%, 93.998718%))}[fill="rgb(64.99939%, 64.99939%, 64.99939%)"]{fill:var(--diagram-grid, rgb(64.99939%, 64.99939%, 64.99939%))}[stroke="rgb(64.99939%, 64.99939%, 64.99939%)"]{stroke:var(--diagram-grid, rgb(64.99939%, 64.99939%, 64.99939%))}[fill="rgb(96.499634%, 85.998535%, 89.498901%)"]{fill:var(--diagram-grid, rgb(96.499634%, 85.998535%, 89.498901%))}[stroke="rgb(96.499634%, 85.998535%, 89.498901%)"]{stroke:var(--diagram-grid, rgb(96.499634%, 85.998535%, 89.498901%))}[fill="rgb(69.999695%, 69.999695%, 69.999695%)"]{fill:var(--diagram-grid, rgb(69.999695%, 69.999695%, 69.999695%))}[stroke="rgb(69.999695%, 69.999695%, 69.999695%)"]{stroke:var(--diagram-grid, rgb(69.999695%, 69.999695%, 69.999695%))}[fill="rgb(25%, 25%, 25%)"]{fill:var(--diagram-ink, rgb(25%, 25%, 25%))}[stroke="rgb(25%, 25%, 25%)"]{stroke:var(--diagram-ink, rgb(25%, 25%, 25%))}</style>
<defs>
<g>
<g id="glyph-0-0">
<path d="M 5.015625 -2.71875 C 5.015625 -3.796875 4.375 -4.015625 3.609375 -4.015625 C 2.75 -4.015625 2.28125 -3.546875 2.046875 -3.171875 L 2.046875 -6.203125 L 0.453125 -6.125 L 0.453125 -5.6875 C 0.984375 -5.6875 1.046875 -5.6875 1.046875 -5.34375 L 1.046875 -0.4375 L 0.453125 -0.4375 L 0.453125 0 C 1.109375 -0.03125 1.21875 -0.03125 1.578125 -0.03125 C 1.9375 -0.03125 2.03125 -0.03125 2.703125 0 L 2.703125 -0.4375 L 2.09375 -0.4375 L 2.09375 -2.265625 C 2.09375 -3.265625 2.921875 -3.671875 3.453125 -3.671875 C 3.796875 -3.671875 3.984375 -3.484375 3.984375 -2.8125 L 3.984375 -0.4375 L 3.375 -0.4375 L 3.375 0 C 4.03125 -0.03125 4.140625 -0.03125 4.5 -0.03125 C 4.859375 -0.03125 4.953125 -0.03125 5.625 0 L 5.625 -0.4375 L 5.015625 -0.4375 Z M 5.015625 -2.71875 "/>
</g>
<g id="glyph-0-1">
<path d="M 6.8125 -5.5 C 6.859375 -5.609375 6.90625 -5.6875 7.5625 -5.6875 L 7.71875 -5.6875 L 7.71875 -6.125 C 7.234375 -6.109375 7.03125 -6.109375 6.671875 -6.109375 C 6.171875 -6.109375 5.96875 -6.109375 5.5 -6.125 L 5.5 -5.6875 C 5.734375 -5.6875 6.046875 -5.6875 6.28125 -5.59375 L 4.375 -1.421875 L 2.4375 -5.6875 L 3.265625 -5.6875 L 3.265625 -6.125 C 2.953125 -6.109375 2.0625 -6.109375 1.6875 -6.109375 C 1.3125 -6.109375 0.59375 -6.109375 0.25 -6.125 L 0.25 -5.6875 L 1.078125 -5.6875 L 3.578125 -0.15625 C 3.6875 0.078125 3.8125 0.078125 3.984375 0.078125 C 4.15625 0.078125 4.28125 0.078125 4.390625 -0.15625 Z M 6.8125 -5.5 "/>
</g>
<g id="glyph-1-0">
<path d="M 5.40625 -5.515625 C 5.125 -5.796875 4.609375 -6.296875 3.703125 -6.296875 C 1.96875 -6.296875 0.515625 -4.859375 0.515625 -3.0625 C 0.515625 -1.21875 2 0.203125 3.703125 0.203125 C 5.1875 0.203125 6.109375 -1.03125 6.109375 -2.078125 C 6.109375 -2.15625 6.109375 -2.25 5.984375 -2.25 C 5.875 -2.25 5.875 -2.1875 5.859375 -2.09375 C 5.796875 -0.734375 4.71875 -0.078125 3.796875 -0.078125 C 3.03125 -0.078125 1.421875 -0.546875 1.421875 -3.0625 C 1.421875 -5.546875 3.046875 -6.03125 3.796875 -6.03125 C 4.671875 -6.03125 5.609375 -5.359375 5.828125 -3.90625 C 5.84375 -3.796875 5.859375 -3.75 5.96875 -3.75 C 6.109375 -3.75 6.109375 -3.796875 6.109375 -3.984375 L 6.109375 -6.0625 C 6.109375 -6.21875 6.109375 -6.296875 6 -6.296875 C 5.9375 -6.296875 5.921875 -6.28125 5.859375 -6.1875 Z M 5.40625 -5.515625 "/>
</g>
<g id="glyph-1-1">
<path d="M 3.65625 -6.21875 C 3.609375 -6.328125 3.578125 -6.40625 3.4375 -6.40625 C 3.296875 -6.40625 3.28125 -6.34375 3.21875 -6.203125 L 1.3125 -0.890625 C 1.203125 -0.59375 0.984375 -0.28125 0.296875 -0.28125 L 0.296875 0 C 0.640625 -0.03125 0.890625 -0.03125 1.21875 -0.03125 C 1.53125 -0.03125 1.71875 -0.015625 2.21875 0 L 2.21875 -0.28125 C 1.71875 -0.28125 1.5625 -0.5625 1.5625 -0.734375 C 1.5625 -0.8125 1.578125 -0.859375 1.59375 -0.90625 L 2.015625 -2.0625 L 4.328125 -2.0625 L 4.8125 -0.703125 C 4.859375 -0.609375 4.859375 -0.59375 4.859375 -0.546875 C 4.859375 -0.28125 4.359375 -0.28125 4.125 -0.28125 L 4.125 0 C 4.53125 -0.03125 5 -0.03125 5.40625 -0.03125 C 5.8125 -0.03125 5.84375 -0.03125 6.578125 0 L 6.578125 -0.28125 L 6.421875 -0.28125 C 5.875 -0.28125 5.78125 -0.359375 5.6875 -0.609375 Z M 4.234375 -2.328125 L 2.125 -2.328125 L 3.171875 -5.25 Z M 4.234375 -2.328125 "/>
</g>
<g id="glyph-1-2">
<path d="M 3.046875 2.125 C 3.046875 2.078125 3.015625 2.0625 2.96875 2 C 1.8125 0.9375 1.46875 -0.671875 1.46875 -2.234375 C 1.46875 -3.625 1.734375 -5.296875 3 -6.5 C 3.03125 -6.53125 3.046875 -6.5625 3.046875 -6.609375 C 3.046875 -6.671875 3 -6.703125 2.9375 -6.703125 C 2.828125 -6.703125 2.03125 -6.0625 1.546875 -5.078125 C 1.125 -4.234375 0.90625 -3.3125 0.90625 -2.25 C 0.90625 -1.59375 0.984375 -0.578125 1.46875 0.46875 C 2 1.578125 2.828125 2.21875 2.9375 2.21875 C 3 2.21875 3.046875 2.1875 3.046875 2.125 Z M 3.046875 2.125 "/>
</g>
<g id="glyph-1-3">
<path d="M 2.65625 -2.25 C 2.65625 -2.96875 2.5625 -3.953125 2.09375 -4.953125 C 1.5625 -6.046875 0.734375 -6.703125 0.625 -6.703125 C 0.53125 -6.703125 0.515625 -6.625 0.515625 -6.609375 C 0.515625 -6.5625 0.53125 -6.53125 0.59375 -6.46875 C 1.125 -6 2.09375 -4.796875 2.09375 -2.25 C 2.09375 -0.96875 1.875 0.8125 0.578125 2.015625 C 0.546875 2.046875 0.515625 2.078125 0.515625 2.125 C 0.515625 2.15625 0.53125 2.21875 0.625 2.21875 C 0.734375 2.21875 1.53125 1.578125 2.015625 0.609375 C 2.453125 -0.25 2.65625 -1.171875 2.65625 -2.25 Z M 2.65625 -2.25 "/>
</g>
<g id="glyph-1-4">
<path d="M 2.90625 -3.578125 L 2.90625 -3.859375 L 1.609375 -3.859375 L 1.609375 -5.5 L 1.359375 -5.5 C 1.34375 -4.75 1.03125 -3.828125 0.171875 -3.796875 L 0.171875 -3.578125 L 0.953125 -3.578125 L 0.953125 -1.109375 C 0.953125 -0.109375 1.671875 0.09375 2.140625 0.09375 C 2.75 0.09375 3.0625 -0.46875 3.0625 -1.109375 L 3.0625 -1.625 L 2.8125 -1.625 L 2.8125 -1.140625 C 2.8125 -0.46875 2.53125 -0.15625 2.203125 -0.15625 C 1.609375 -0.15625 1.609375 -0.9375 1.609375 -1.09375 L 1.609375 -3.578125 Z M 2.90625 -3.578125 "/>
</g>
<g id="glyph-1-5">
<path d="M 3.0625 -0.640625 C 3.09375 -0.265625 3.359375 0.046875 3.75 0.046875 C 3.96875 0.046875 4.53125 -0.078125 4.53125 -0.796875 L 4.53125 -1.296875 L 4.28125 -1.296875 L 4.28125 -0.796875 C 4.28125 -0.703125 4.28125 -0.265625 3.953125 -0.265625 C 3.640625 -0.265625 3.640625 -0.6875 3.640625 -0.828125 L 3.640625 -2.390625 C 3.640625 -2.90625 3.640625 -3.203125 3.234375 -3.578125 C 2.90625 -3.875 2.46875 -4 2.03125 -4 C 1.28125 -4 0.65625 -3.625 0.65625 -3.0625 C 0.65625 -2.78125 0.84375 -2.625 1.078125 -2.625 C 1.3125 -2.625 1.484375 -2.8125 1.484375 -3.03125 C 1.484375 -3.421875 1.09375 -3.46875 1.078125 -3.46875 C 1.328125 -3.703125 1.75 -3.78125 2.015625 -3.78125 C 2.46875 -3.78125 2.96875 -3.4375 2.96875 -2.65625 L 2.96875 -2.359375 C 2.5 -2.34375 1.828125 -2.296875 1.21875 -2.015625 C 0.578125 -1.703125 0.390625 -1.234375 0.390625 -0.875 C 0.390625 -0.140625 1.25 0.09375 1.84375 0.09375 C 2.59375 0.09375 2.9375 -0.390625 3.0625 -0.640625 Z M 2.96875 -1.265625 C 2.96875 -0.390625 2.3125 -0.125 1.90625 -0.125 C 1.5 -0.125 1.09375 -0.421875 1.09375 -0.875 C 1.09375 -1.46875 1.609375 -2.09375 2.96875 -2.140625 Z M 2.96875 -1.265625 "/>
</g>
<g id="glyph-1-6">
<path d="M 1.65625 -2.3125 C 1.65625 -3.265625 2.328125 -3.734375 2.890625 -3.734375 C 3.421875 -3.734375 3.546875 -3.28125 3.546875 -2.75 L 3.546875 -0.6875 C 3.546875 -0.28125 3.4375 -0.28125 2.84375 -0.28125 L 2.84375 0 C 3.265625 -0.015625 3.4375 -0.03125 3.875 -0.03125 C 4.296875 -0.03125 4.421875 -0.015625 4.890625 0 L 4.890625 -0.28125 C 4.4375 -0.28125 4.203125 -0.28125 4.203125 -0.546875 L 4.203125 -2.265625 C 4.203125 -3.015625 4.203125 -3.265625 3.953125 -3.578125 C 3.75 -3.828125 3.40625 -3.953125 2.953125 -3.953125 C 2.125 -3.953125 1.75 -3.328125 1.625 -3.078125 L 1.609375 -3.078125 L 1.609375 -3.953125 L 0.3125 -3.859375 L 0.3125 -3.578125 C 0.921875 -3.578125 1 -3.515625 1 -3.078125 L 1 -0.6875 C 1 -0.28125 0.90625 -0.28125 0.3125 -0.28125 L 0.3125 0 C 0.734375 -0.015625 0.90625 -0.03125 1.328125 -0.03125 C 1.765625 -0.03125 1.875 -0.015625 2.34375 0 L 2.34375 -0.28125 C 1.765625 -0.28125 1.65625 -0.28125 1.65625 -0.6875 Z M 1.65625 -2.3125 "/>
</g>
<g id="glyph-1-7">
<path d="M 1.640625 -6.203125 L 0.3125 -6.109375 L 0.3125 -5.828125 C 0.921875 -5.828125 1 -5.765625 1 -5.328125 L 1 -0.6875 C 1 -0.28125 0.90625 -0.28125 0.3125 -0.28125 L 0.3125 0 C 0.734375 -0.015625 0.90625 -0.03125 1.328125 -0.03125 C 1.765625 -0.03125 1.875 -0.015625 2.34375 0 L 2.34375 -0.28125 C 1.765625 -0.28125 1.65625 -0.28125 1.65625 -0.6875 L 1.65625 -2.3125 C 1.65625 -3.265625 2.328125 -3.734375 2.890625 -3.734375 C 3.421875 -3.734375 3.546875 -3.28125 3.546875 -2.75 L 3.546875 -0.6875 C 3.546875 -0.28125 3.4375 -0.28125 2.84375 -0.28125 L 2.84375 0 C 3.265625 -0.015625 3.4375 -0.03125 3.875 -0.03125 C 4.296875 -0.03125 4.421875 -0.015625 4.890625 0 L 4.890625 -0.28125 C 4.4375 -0.28125 4.203125 -0.28125 4.203125 -0.546875 L 4.203125 -2.265625 C 4.203125 -3.015625 4.203125 -3.265625 3.953125 -3.578125 C 3.75 -3.828125 3.40625 -3.953125 2.953125 -3.953125 C 2.359375 -3.953125 1.921875 -3.640625 1.640625 -3.140625 Z M 1.640625 -6.203125 "/>
</g>
<g id="glyph-1-8">
<path d="M 6.3125 -2.046875 C 6.4375 -2.046875 6.625 -2.046875 6.625 -2.234375 C 6.625 -2.4375 6.453125 -2.4375 6.3125 -2.4375 L 3.765625 -2.4375 L 3.765625 -4.984375 C 3.765625 -5.125 3.765625 -5.296875 3.5625 -5.296875 C 3.375 -5.296875 3.375 -5.109375 3.375 -4.984375 L 3.375 -2.4375 L 0.828125 -2.4375 C 0.703125 -2.4375 0.515625 -2.4375 0.515625 -2.25 C 0.515625 -2.046875 0.671875 -2.046875 0.828125 -2.046875 L 3.375 -2.046875 L 3.375 0.515625 C 3.375 0.65625 3.375 0.828125 3.578125 0.828125 C 3.765625 0.828125 3.765625 0.640625 3.765625 0.515625 L 3.765625 -2.046875 Z M 6.3125 -2.046875 "/>
</g>
<g id="glyph-2-0">
<path d="M 1.625 -0.140625 C 1.625 0.15625 1.625 0.890625 0.96875 1.515625 C 0.90625 1.578125 0.90625 1.578125 0.90625 1.625 C 0.90625 1.6875 0.96875 1.71875 1.03125 1.71875 C 1.125 1.71875 1.84375 1.03125 1.84375 -0.015625 C 1.84375 -0.578125 1.65625 -0.96875 1.265625 -0.96875 C 0.96875 -0.96875 0.78125 -0.734375 0.78125 -0.484375 C 0.78125 -0.234375 0.96875 0 1.265625 0 C 1.40625 0 1.53125 -0.046875 1.625 -0.140625 Z M 1.625 -0.140625 "/>
</g>
<g id="glyph-2-1">
<path d="M 3.5625 -1.1875 C 3.53125 -1.828125 3.390625 -2.46875 3.125 -3.0625 C 2.828125 -3.703125 2.40625 -3.953125 1.9375 -3.953125 C 0.796875 -3.953125 0.15625 -2.625 0.15625 -2.328125 C 0.15625 -2.21875 0.265625 -2.21875 0.28125 -2.21875 C 0.359375 -2.21875 0.390625 -2.25 0.40625 -2.3125 C 0.703125 -3.140625 1.53125 -3.28125 1.828125 -3.28125 C 3.265625 -3.28125 3.3125 -1.578125 3.3125 -1 C 3.3125 -0.46875 3.265625 -0.34375 3.21875 -0.21875 C 3 0.578125 2.75 1.5 2.75 1.734375 C 2.75 1.796875 2.75 1.9375 2.875 1.9375 C 2.9375 1.9375 3.015625 1.9375 3.171875 1.390625 C 3.40625 0.5625 3.46875 0.078125 3.515625 -0.28125 C 3.53125 -0.390625 4 -1.828125 4.8125 -3.4375 C 4.953125 -3.71875 4.953125 -3.734375 4.953125 -3.75 C 4.953125 -3.8125 4.921875 -3.859375 4.84375 -3.859375 C 4.828125 -3.859375 4.765625 -3.859375 4.734375 -3.796875 C 4.515625 -3.4375 4.3125 -2.96875 4.125 -2.546875 C 4.078125 -2.453125 3.828125 -1.90625 3.5625 -1.1875 Z M 3.5625 -1.1875 "/>
</g>
<g id="glyph-3-0">
<path d="M 1.875 -2.796875 C 1.90625 -2.890625 1.921875 -2.953125 1.921875 -2.984375 C 1.921875 -3.171875 1.75 -3.328125 1.5625 -3.328125 C 1.328125 -3.328125 1.25 -3.125 1.21875 -3.03125 L 0.390625 -0.484375 C 0.375 -0.453125 0.359375 -0.40625 0.359375 -0.375 C 0.359375 -0.28125 0.59375 -0.234375 0.609375 -0.234375 C 0.65625 -0.234375 0.6875 -0.28125 0.703125 -0.328125 Z M 1.875 -2.796875 "/>
</g>
<g id="glyph-4-0">
<path d="M 3.125 -4.796875 C 3.078125 -4.90625 3.0625 -4.953125 2.921875 -4.953125 C 2.796875 -4.953125 2.78125 -4.90625 2.734375 -4.796875 L 1.125 -0.734375 C 1.0625 -0.5625 0.9375 -0.25 0.3125 -0.25 L 0.3125 0 C 0.546875 -0.015625 0.796875 -0.03125 1.03125 -0.03125 C 1.3125 -0.03125 1.828125 0 1.859375 0 L 1.859375 -0.25 C 1.5625 -0.25 1.359375 -0.390625 1.359375 -0.578125 C 1.359375 -0.640625 1.375 -0.65625 1.390625 -0.71875 L 1.734375 -1.578125 L 3.703125 -1.578125 L 4.109375 -0.5625 C 4.125 -0.53125 4.140625 -0.484375 4.140625 -0.4375 C 4.140625 -0.25 3.765625 -0.25 3.578125 -0.25 L 3.578125 0 C 3.921875 -0.015625 4.375 -0.03125 4.609375 -0.03125 C 4.9375 -0.03125 5.46875 0 5.546875 0 L 5.546875 -0.25 L 5.40625 -0.25 C 4.9375 -0.25 4.890625 -0.3125 4.8125 -0.515625 Z M 2.71875 -4.09375 L 3.609375 -1.828125 L 1.828125 -1.828125 Z M 2.71875 -4.09375 "/>
</g>
<g id="glyph-4-1">
<path d="M 1.390625 -2.75 L 2.484375 -2.75 L 2.484375 -3 L 1.390625 -3 L 1.390625 -4.28125 L 1.15625 -4.28125 C 1.15625 -3.65625 0.875 -2.96875 0.203125 -2.9375 L 0.203125 -2.75 L 0.84375 -2.75 L 0.84375 -0.875 C 0.84375 -0.09375 1.4375 0.0625 1.828125 0.0625 C 2.28125 0.0625 2.609375 -0.328125 2.609375 -0.875 L 2.609375 -1.265625 L 2.375 -1.265625 L 2.375 -0.890625 C 2.375 -0.40625 2.15625 -0.15625 1.875 -0.15625 C 1.390625 -0.15625 1.390625 -0.734375 1.390625 -0.859375 Z M 1.390625 -2.75 "/>
</g>
<g id="glyph-4-2">
<path d="M 5.34375 -2.34375 C 5.4375 -2.34375 5.609375 -2.34375 5.609375 -2.515625 C 5.609375 -2.671875 5.4375 -2.671875 5.34375 -2.671875 L 0.75 -2.671875 C 0.65625 -2.671875 0.484375 -2.671875 0.484375 -2.515625 C 0.484375 -2.34375 0.640625 -2.34375 0.75 -2.34375 Z M 5.34375 -0.8125 C 5.4375 -0.8125 5.609375 -0.8125 5.609375 -0.96875 C 5.609375 -1.140625 5.4375 -1.140625 5.34375 -1.140625 L 0.75 -1.140625 C 0.640625 -1.140625 0.484375 -1.140625 0.484375 -0.96875 C 0.484375 -0.8125 0.65625 -0.8125 0.75 -0.8125 Z M 5.34375 -0.8125 "/>
</g>
<g id="glyph-4-3">
<path d="M 3.59375 -2.21875 C 3.59375 -2.984375 3.5 -3.53125 3.171875 -4.015625 C 2.96875 -4.34375 2.53125 -4.609375 1.96875 -4.609375 C 0.359375 -4.609375 0.359375 -2.71875 0.359375 -2.21875 C 0.359375 -1.71875 0.359375 0.140625 1.96875 0.140625 C 3.59375 0.140625 3.59375 -1.71875 3.59375 -2.21875 Z M 1.96875 -0.0625 C 1.65625 -0.0625 1.234375 -0.25 1.09375 -0.8125 C 1 -1.21875 1 -1.796875 1 -2.3125 C 1 -2.8125 1 -3.34375 1.09375 -3.734375 C 1.25 -4.28125 1.6875 -4.421875 1.96875 -4.421875 C 2.34375 -4.421875 2.71875 -4.1875 2.84375 -3.796875 C 2.953125 -3.40625 2.953125 -2.90625 2.953125 -2.3125 C 2.953125 -1.796875 2.953125 -1.28125 2.859375 -0.84375 C 2.71875 -0.203125 2.25 -0.0625 1.96875 -0.0625 Z M 1.96875 -0.0625 "/>
</g>
<g id="glyph-4-4">
<path d="M 1.515625 -2.59375 C 1.515625 -2.84375 1.328125 -3 1.125 -3 C 0.890625 -3 0.71875 -2.796875 0.71875 -2.59375 C 0.71875 -2.359375 0.921875 -2.203125 1.125 -2.203125 C 1.359375 -2.203125 1.515625 -2.390625 1.515625 -2.59375 Z M 1.515625 -0.390625 C 1.515625 -0.640625 1.328125 -0.796875 1.125 -0.796875 C 0.890625 -0.796875 0.71875 -0.609375 0.71875 -0.40625 C 0.71875 -0.15625 0.921875 0 1.125 0 C 1.359375 0 1.515625 -0.1875 1.515625 -0.390625 Z M 1.515625 -0.390625 "/>
</g>
<g id="glyph-4-5">
<path d="M 3.09375 -1.859375 C 3.09375 -2.234375 3.09375 -2.5 2.78125 -2.75 C 2.5 -2.984375 2.15625 -3.09375 1.75 -3.09375 C 1.09375 -3.09375 0.625 -2.84375 0.625 -2.421875 C 0.625 -2.203125 0.78125 -2.09375 0.953125 -2.09375 C 1.140625 -2.09375 1.28125 -2.21875 1.28125 -2.40625 C 1.28125 -2.53125 1.234375 -2.671875 1.046875 -2.734375 C 1.296875 -2.90625 1.703125 -2.90625 1.734375 -2.90625 C 2.125 -2.90625 2.546875 -2.65625 2.546875 -2.0625 L 2.546875 -1.84375 C 2.171875 -1.828125 1.703125 -1.8125 1.203125 -1.625 C 0.578125 -1.390625 0.375 -1.015625 0.375 -0.703125 C 0.375 -0.109375 1.109375 0.0625 1.59375 0.0625 C 2.15625 0.0625 2.484375 -0.25 2.625 -0.515625 C 2.65625 -0.234375 2.84375 0.03125 3.15625 0.03125 C 3.171875 0.03125 3.859375 0.03125 3.859375 -0.625 L 3.859375 -1.015625 L 3.609375 -1.015625 L 3.609375 -0.625 C 3.609375 -0.5625 3.609375 -0.234375 3.359375 -0.234375 C 3.09375 -0.234375 3.09375 -0.5625 3.09375 -0.640625 Z M 2.546875 -0.984375 C 2.546875 -0.3125 1.96875 -0.125 1.65625 -0.125 C 1.296875 -0.125 0.96875 -0.359375 0.96875 -0.703125 C 0.96875 -1.078125 1.296875 -1.625 2.546875 -1.671875 Z M 2.546875 -0.984375 "/>
</g>
<g id="glyph-4-6">
<path d="M 3.578125 -2.109375 C 3.578125 -2.71875 3.28125 -3.0625 2.53125 -3.0625 C 1.96875 -3.0625 1.59375 -2.75 1.40625 -2.390625 L 1.390625 -2.390625 L 1.390625 -3.0625 L 0.375 -2.984375 L 0.375 -2.734375 C 0.84375 -2.734375 0.890625 -2.6875 0.890625 -2.34375 L 0.890625 -0.546875 C 0.890625 -0.25 0.828125 -0.25 0.375 -0.25 L 0.375 0 C 0.390625 0 0.875 -0.03125 1.171875 -0.03125 C 1.421875 -0.03125 1.90625 0 1.96875 0 L 1.96875 -0.25 C 1.515625 -0.25 1.453125 -0.25 1.453125 -0.546875 L 1.453125 -1.796875 C 1.453125 -2.53125 2.015625 -2.875 2.484375 -2.875 C 2.96875 -2.875 3.03125 -2.484375 3.03125 -2.140625 L 3.03125 -0.546875 C 3.03125 -0.25 2.96875 -0.25 2.515625 -0.25 L 2.515625 0 C 2.53125 0 3.015625 -0.03125 3.296875 -0.03125 C 3.5625 -0.03125 4.046875 0 4.109375 0 L 4.109375 -0.25 C 3.65625 -0.25 3.578125 -0.25 3.578125 -0.546875 Z M 3.578125 -2.109375 "/>
</g>
<g id="glyph-4-7">
<path d="M 3.578125 -2.109375 C 3.578125 -2.71875 3.28125 -3.0625 2.53125 -3.0625 C 1.921875 -3.0625 1.578125 -2.703125 1.421875 -2.4375 L 1.421875 -4.828125 L 0.375 -4.75 L 0.375 -4.5 C 0.84375 -4.5 0.890625 -4.453125 0.890625 -4.109375 L 0.890625 -0.546875 C 0.890625 -0.25 0.828125 -0.25 0.375 -0.25 L 0.375 0 C 0.390625 0 0.875 -0.03125 1.171875 -0.03125 C 1.421875 -0.03125 1.90625 0 1.96875 0 L 1.96875 -0.25 C 1.515625 -0.25 1.453125 -0.25 1.453125 -0.546875 L 1.453125 -1.796875 C 1.453125 -2.53125 2.015625 -2.875 2.484375 -2.875 C 2.96875 -2.875 3.03125 -2.484375 3.03125 -2.140625 L 3.03125 -0.546875 C 3.03125 -0.25 2.96875 -0.25 2.515625 -0.25 L 2.515625 0 C 2.53125 0 3.015625 -0.03125 3.296875 -0.03125 C 3.5625 -0.03125 4.046875 0 4.109375 0 L 4.109375 -0.25 C 3.65625 -0.25 3.578125 -0.25 3.578125 -0.546875 Z M 3.578125 -2.109375 "/>
</g>
<g id="glyph-4-8">
<path d="M 1.40625 -0.109375 C 1.40625 0.078125 1.40625 0.671875 0.875 1.15625 C 0.84375 1.1875 0.828125 1.203125 0.828125 1.25 C 0.828125 1.28125 0.875 1.34375 0.921875 1.34375 C 1.015625 1.34375 1.609375 0.796875 1.609375 -0.046875 C 1.609375 -0.453125 1.453125 -0.796875 1.125 -0.796875 C 0.875 -0.796875 0.71875 -0.609375 0.71875 -0.390625 C 0.71875 -0.234375 0.828125 0 1.125 0 C 1.296875 0 1.40625 -0.109375 1.40625 -0.109375 Z M 1.40625 -0.109375 "/>
</g>
<g id="glyph-4-9">
<path d="M 3.0625 -1.578125 C 3.203125 -1.578125 3.25 -1.578125 3.25 -1.734375 C 3.25 -2.34375 2.90625 -3.09375 1.875 -3.09375 C 0.96875 -3.09375 0.265625 -2.375 0.265625 -1.515625 C 0.265625 -0.640625 1.046875 0.0625 1.96875 0.0625 C 2.90625 0.0625 3.25 -0.6875 3.25 -0.828125 C 3.25 -0.859375 3.234375 -0.9375 3.140625 -0.9375 C 3.046875 -0.9375 3.03125 -0.890625 3.015625 -0.828125 C 2.796875 -0.25 2.265625 -0.15625 2.015625 -0.15625 C 1.6875 -0.15625 1.375 -0.296875 1.171875 -0.5625 C 0.90625 -0.890625 0.90625 -1.3125 0.90625 -1.578125 Z M 0.90625 -1.765625 C 0.984375 -2.75 1.609375 -2.90625 1.875 -2.90625 C 2.734375 -2.90625 2.765625 -1.9375 2.765625 -1.765625 Z M 0.90625 -1.765625 "/>
</g>
<g id="glyph-4-10">
<path d="M 1 -1.234375 C 1.109375 -1.171875 1.359375 -1.015625 1.765625 -1.015625 C 2.46875 -1.015625 3 -1.5 3 -2.046875 C 3 -2.3125 2.875 -2.53125 2.703125 -2.71875 C 3.015625 -2.9375 3.28125 -2.9375 3.40625 -2.9375 C 3.375 -2.90625 3.34375 -2.890625 3.34375 -2.78125 C 3.34375 -2.640625 3.453125 -2.546875 3.5625 -2.546875 C 3.671875 -2.546875 3.796875 -2.625 3.796875 -2.78125 C 3.796875 -2.9375 3.65625 -3.140625 3.375 -3.140625 C 3.28125 -3.140625 2.90625 -3.109375 2.578125 -2.8125 C 2.359375 -2.96875 2.078125 -3.0625 1.765625 -3.0625 C 1.046875 -3.0625 0.53125 -2.59375 0.53125 -2.046875 C 0.53125 -1.765625 0.671875 -1.515625 0.859375 -1.34375 C 0.8125 -1.28125 0.65625 -1.046875 0.65625 -0.78125 C 0.65625 -0.6875 0.671875 -0.359375 0.953125 -0.15625 C 0.625 -0.0625 0.265625 0.171875 0.265625 0.53125 C 0.265625 1.046875 1.03125 1.421875 1.96875 1.421875 C 2.859375 1.421875 3.671875 1.078125 3.671875 0.515625 C 3.671875 0.3125 3.59375 -0.0625 3.21875 -0.265625 C 2.796875 -0.484375 2.390625 -0.484375 1.71875 -0.484375 C 1.5625 -0.484375 1.3125 -0.484375 1.265625 -0.5 C 1.03125 -0.546875 0.90625 -0.75 0.90625 -0.953125 C 0.90625 -1.125 0.953125 -1.1875 1 -1.234375 Z M 1.765625 -1.234375 C 1.078125 -1.234375 1.078125 -1.890625 1.078125 -2.046875 C 1.078125 -2.15625 1.078125 -2.4375 1.21875 -2.609375 C 1.328125 -2.734375 1.515625 -2.859375 1.765625 -2.859375 C 2.4375 -2.859375 2.4375 -2.1875 2.4375 -2.046875 C 2.4375 -1.9375 2.4375 -1.65625 2.296875 -1.46875 C 2.203125 -1.359375 2.015625 -1.234375 1.765625 -1.234375 Z M 1.765625 -0.015625 C 2.390625 -0.015625 3.25 -0.015625 3.25 0.53125 C 3.25 0.890625 2.703125 1.21875 1.96875 1.21875 C 1.25 1.21875 0.703125 0.890625 0.703125 0.53125 C 0.703125 0.28125 0.921875 -0.015625 1.359375 -0.015625 Z M 1.765625 -0.015625 "/>
</g>
<g id="glyph-4-11">
<path d="M 1.46875 -4.296875 C 1.46875 -4.484375 1.296875 -4.6875 1.0625 -4.6875 C 0.859375 -4.6875 0.671875 -4.515625 0.671875 -4.296875 C 0.671875 -4.046875 0.875 -3.890625 1.0625 -3.890625 C 1.28125 -3.890625 1.46875 -4.0625 1.46875 -4.296875 Z M 0.40625 -2.984375 L 0.40625 -2.734375 C 0.84375 -2.734375 0.90625 -2.703125 0.90625 -2.359375 L 0.90625 -0.546875 C 0.90625 -0.25 0.84375 -0.25 0.390625 -0.25 L 0.390625 0 C 0.40625 0 0.890625 -0.03125 1.171875 -0.03125 C 1.40625 -0.03125 1.65625 -0.015625 1.90625 0 L 1.90625 -0.25 C 1.5 -0.25 1.4375 -0.25 1.4375 -0.546875 L 1.4375 -3.0625 Z M 0.40625 -2.984375 "/>
</g>
<g id="glyph-4-12">
<path d="M 2.640625 -2.921875 C 2.640625 -3.03125 2.640625 -3.09375 2.53125 -3.09375 C 2.5 -3.09375 2.484375 -3.09375 2.40625 -3.015625 C 2.390625 -3.015625 2.3125 -2.953125 2.28125 -2.90625 C 2.0625 -3.0625 1.796875 -3.09375 1.546875 -3.09375 C 0.546875 -3.09375 0.3125 -2.578125 0.3125 -2.234375 C 0.3125 -2.015625 0.40625 -1.828125 0.578125 -1.6875 C 0.84375 -1.453125 1.109375 -1.40625 1.53125 -1.34375 C 1.890625 -1.28125 2.453125 -1.1875 2.453125 -0.71875 C 2.453125 -0.4375 2.265625 -0.125 1.59375 -0.125 C 0.921875 -0.125 0.6875 -0.5625 0.5625 -1.03125 C 0.53125 -1.125 0.53125 -1.15625 0.4375 -1.15625 C 0.3125 -1.15625 0.3125 -1.109375 0.3125 -0.96875 L 0.3125 -0.109375 C 0.3125 0 0.3125 0.0625 0.40625 0.0625 C 0.46875 0.0625 0.609375 -0.078125 0.75 -0.234375 C 1.046875 0.0625 1.421875 0.0625 1.59375 0.0625 C 2.5 0.0625 2.828125 -0.421875 2.828125 -0.90625 C 2.828125 -1.171875 2.71875 -1.390625 2.53125 -1.546875 C 2.265625 -1.796875 1.953125 -1.84375 1.703125 -1.890625 C 1.140625 -1.984375 0.703125 -2.078125 0.703125 -2.4375 C 0.703125 -2.65625 0.890625 -2.9375 1.546875 -2.9375 C 2.34375 -2.9375 2.390625 -2.375 2.40625 -2.171875 C 2.40625 -2.09375 2.484375 -2.09375 2.515625 -2.09375 C 2.640625 -2.09375 2.640625 -2.140625 2.640625 -2.28125 Z M 2.640625 -2.921875 "/>
</g>
<g id="glyph-4-13">
<path d="M 2.703125 -2.78125 C 2.578125 -2.71875 2.515625 -2.609375 2.515625 -2.46875 C 2.515625 -2.28125 2.640625 -2.140625 2.84375 -2.140625 C 3.03125 -2.140625 3.171875 -2.265625 3.171875 -2.484375 C 3.171875 -3.09375 2.203125 -3.09375 2.015625 -3.09375 C 0.96875 -3.09375 0.3125 -2.296875 0.3125 -1.5 C 0.3125 -0.625 1.0625 0.0625 1.96875 0.0625 C 3.015625 0.0625 3.25 -0.75 3.25 -0.828125 C 3.25 -0.921875 3.15625 -0.921875 3.140625 -0.921875 C 3.046875 -0.921875 3.03125 -0.890625 3 -0.796875 C 2.84375 -0.375 2.484375 -0.15625 2.0625 -0.15625 C 1.578125 -0.15625 0.953125 -0.5 0.953125 -1.515625 C 0.953125 -2.390625 1.390625 -2.875 2.03125 -2.875 C 2.125 -2.875 2.453125 -2.875 2.703125 -2.78125 Z M 2.703125 -2.78125 "/>
</g>
<g id="glyph-4-14">
<path d="M 1.4375 -4.828125 L 0.390625 -4.75 L 0.390625 -4.5 C 0.859375 -4.5 0.90625 -4.453125 0.90625 -4.109375 L 0.90625 -0.546875 C 0.90625 -0.25 0.84375 -0.25 0.390625 -0.25 L 0.390625 0 C 0.40625 0 0.890625 -0.03125 1.171875 -0.03125 C 1.4375 -0.03125 1.6875 -0.015625 1.953125 0 L 1.953125 -0.25 C 1.5 -0.25 1.4375 -0.25 1.4375 -0.546875 Z M 1.4375 -4.828125 "/>
</g>
<g id="glyph-4-15">
<path d="M 3.671875 -1.484375 C 3.671875 -2.34375 2.9375 -3.09375 1.96875 -3.09375 C 1.015625 -3.09375 0.265625 -2.34375 0.265625 -1.484375 C 0.265625 -0.625 1.03125 0.0625 1.96875 0.0625 C 2.90625 0.0625 3.671875 -0.625 3.671875 -1.484375 Z M 1.96875 -0.15625 C 1.71875 -0.15625 1.34375 -0.234375 1.109375 -0.578125 C 0.921875 -0.859375 0.90625 -1.21875 0.90625 -1.546875 C 0.90625 -1.84375 0.90625 -2.25 1.15625 -2.546875 C 1.328125 -2.75 1.625 -2.90625 1.96875 -2.90625 C 2.390625 -2.90625 2.671875 -2.71875 2.828125 -2.5 C 3.03125 -2.21875 3.046875 -1.875 3.046875 -1.546875 C 3.046875 -1.203125 3.03125 -0.84375 2.828125 -0.5625 C 2.640625 -0.296875 2.3125 -0.15625 1.96875 -0.15625 Z M 1.96875 -0.15625 "/>
</g>
<g id="glyph-4-16">
<path d="M 2.46875 -4.75 L 2.46875 -4.5 C 2.9375 -4.5 3 -4.453125 3 -4.109375 L 3 -2.671875 C 2.734375 -2.921875 2.40625 -3.0625 2.015625 -3.0625 C 1.09375 -3.0625 0.3125 -2.375 0.3125 -1.5 C 0.3125 -0.625 1.0625 0.0625 1.9375 0.0625 C 2.515625 0.0625 2.84375 -0.234375 2.96875 -0.359375 L 2.96875 0.0625 L 4.046875 0 L 4.046875 -0.25 C 3.578125 -0.25 3.515625 -0.296875 3.515625 -0.640625 L 3.515625 -4.828125 Z M 2.96875 -0.734375 C 2.78125 -0.40625 2.4375 -0.125 1.984375 -0.125 C 1.59375 -0.125 1.3125 -0.359375 1.171875 -0.5625 C 1.03125 -0.765625 0.953125 -1.046875 0.953125 -1.484375 C 0.953125 -1.640625 0.953125 -2.171875 1.234375 -2.5 C 1.515625 -2.8125 1.859375 -2.875 2.0625 -2.875 C 2.390625 -2.875 2.6875 -2.71875 2.890625 -2.46875 C 2.96875 -2.359375 2.96875 -2.34375 2.96875 -2.21875 Z M 2.96875 -0.734375 "/>
</g>
<g id="glyph-4-17">
<path d="M 2.515625 -2.984375 L 2.515625 -2.734375 C 2.96875 -2.734375 3.03125 -2.6875 3.03125 -2.34375 L 3.03125 -1.15625 C 3.03125 -0.546875 2.640625 -0.125 2.109375 -0.125 C 1.46875 -0.125 1.453125 -0.421875 1.453125 -0.78125 L 1.453125 -3.0625 L 0.375 -2.984375 L 0.375 -2.734375 C 0.890625 -2.734375 0.890625 -2.71875 0.890625 -2.09375 L 0.890625 -1.0625 C 0.890625 -0.578125 0.890625 0.0625 2.0625 0.0625 C 2.21875 0.0625 2.71875 0.0625 3.046875 -0.515625 L 3.0625 -0.515625 L 3.0625 0.0625 L 4.109375 0 L 4.109375 -0.25 C 3.640625 -0.25 3.578125 -0.296875 3.578125 -0.640625 L 3.578125 -3.0625 Z M 2.515625 -2.984375 "/>
</g>
<g id="glyph-4-18">
<path d="M 5.71875 -2.109375 C 5.71875 -2.71875 5.421875 -3.0625 4.671875 -3.0625 C 4.125 -3.0625 3.75 -2.765625 3.5625 -2.421875 C 3.421875 -2.90625 3.046875 -3.0625 2.53125 -3.0625 C 1.96875 -3.0625 1.59375 -2.75 1.40625 -2.390625 L 1.390625 -2.390625 L 1.390625 -3.0625 L 0.375 -2.984375 L 0.375 -2.734375 C 0.84375 -2.734375 0.890625 -2.6875 0.890625 -2.34375 L 0.890625 -0.546875 C 0.890625 -0.25 0.828125 -0.25 0.375 -0.25 L 0.375 0 C 0.390625 0 0.875 -0.03125 1.171875 -0.03125 C 1.421875 -0.03125 1.90625 0 1.96875 0 L 1.96875 -0.25 C 1.515625 -0.25 1.453125 -0.25 1.453125 -0.546875 L 1.453125 -1.796875 C 1.453125 -2.53125 2.015625 -2.875 2.484375 -2.875 C 2.96875 -2.875 3.03125 -2.484375 3.03125 -2.140625 L 3.03125 -0.546875 C 3.03125 -0.25 2.96875 -0.25 2.515625 -0.25 L 2.515625 0 C 2.53125 0 3.015625 -0.03125 3.296875 -0.03125 C 3.5625 -0.03125 4.046875 0 4.109375 0 L 4.109375 -0.25 C 3.65625 -0.25 3.578125 -0.25 3.578125 -0.546875 L 3.578125 -1.796875 C 3.578125 -2.53125 4.15625 -2.875 4.609375 -2.875 C 5.109375 -2.875 5.171875 -2.484375 5.171875 -2.140625 L 5.171875 -0.546875 C 5.171875 -0.25 5.09375 -0.25 4.640625 -0.25 L 4.640625 0 C 4.65625 0 5.140625 -0.03125 5.4375 -0.03125 C 5.6875 -0.03125 6.171875 0 6.234375 0 L 6.234375 -0.25 C 5.78125 -0.25 5.71875 -0.25 5.71875 -0.546875 Z M 5.71875 -2.109375 "/>
</g>
<g id="glyph-4-19">
<path d="M 3.515625 -3.0625 L 3.3125 -3.0625 L 3.0625 -2.46875 C 2.84375 -2.796875 2.5 -3.0625 2 -3.0625 C 1.109375 -3.0625 0.3125 -2.390625 0.3125 -1.5 C 0.3125 -0.625 1.0625 0.0625 1.9375 0.0625 C 2.5 0.0625 2.796875 -0.234375 2.96875 -0.40625 L 2.96875 0.796875 C 2.96875 1.09375 2.90625 1.09375 2.453125 1.09375 L 2.453125 1.34375 C 2.46875 1.34375 2.953125 1.328125 3.234375 1.328125 C 3.5 1.328125 3.984375 1.34375 4.046875 1.34375 L 4.046875 1.09375 C 3.59375 1.09375 3.515625 1.09375 3.515625 0.796875 Z M 3 -1 C 3 -0.875 3 -0.84375 2.890625 -0.671875 C 2.6875 -0.328125 2.34375 -0.125 1.984375 -0.125 C 1.40625 -0.125 0.953125 -0.75 0.953125 -1.484375 C 0.953125 -2.296875 1.5 -2.84375 2.0625 -2.84375 C 2.640625 -2.84375 3 -2.28125 3 -1.890625 Z M 3 -1 "/>
</g>
<g id="glyph-4-20">
<path d="M 1.390625 -4.828125 L 0.34375 -4.75 L 0.34375 -4.5 C 0.8125 -4.5 0.859375 -4.4375 0.859375 -4.09375 L 0.859375 0 L 1.09375 0 L 1.34375 -0.421875 C 1.609375 -0.078125 1.984375 0.0625 2.359375 0.0625 C 3.28125 0.0625 4.0625 -0.625 4.0625 -1.5 C 4.0625 -2.34375 3.34375 -3.0625 2.4375 -3.0625 C 2.015625 -3.0625 1.640625 -2.90625 1.390625 -2.65625 Z M 1.40625 -2.328125 C 1.609375 -2.65625 1.984375 -2.875 2.40625 -2.875 C 2.78125 -2.875 3.0625 -2.65625 3.203125 -2.4375 C 3.34375 -2.234375 3.421875 -1.96875 3.421875 -1.515625 C 3.421875 -1.34375 3.421875 -0.828125 3.140625 -0.5 C 2.859375 -0.1875 2.53125 -0.125 2.328125 -0.125 C 1.765625 -0.125 1.484375 -0.5625 1.40625 -0.703125 Z M 1.40625 -2.328125 "/>
</g>
<g id="glyph-4-21">
<path d="M 4.53125 -1.828125 L 4.296875 -1.828125 C 4.21875 -1.140625 4.109375 -0.25 2.796875 -0.25 L 2.09375 -0.25 C 1.765625 -0.25 1.765625 -0.3125 1.765625 -0.515625 L 1.765625 -4.171875 C 1.765625 -4.40625 1.765625 -4.5 2.421875 -4.5 L 2.65625 -4.5 L 2.65625 -4.75 C 2.515625 -4.734375 1.625 -4.71875 1.453125 -4.71875 C 1.1875 -4.71875 0.390625 -4.75 0.390625 -4.75 L 0.390625 -4.5 L 0.5625 -4.5 C 1.09375 -4.5 1.109375 -4.421875 1.109375 -4.1875 L 1.109375 -0.5625 C 1.109375 -0.328125 1.09375 -0.25 0.5625 -0.25 L 0.390625 -0.25 L 0.390625 0 L 4.3125 0 Z M 4.53125 -1.828125 "/>
</g>
<g id="glyph-4-22">
<path d="M 1.90625 -4.59375 C 1.84375 -4.75 1.796875 -4.75 1.640625 -4.75 L 0.4375 -4.75 L 0.4375 -4.5 L 0.59375 -4.5 C 1.140625 -4.5 1.140625 -4.421875 1.140625 -4.1875 L 1.140625 -0.75 C 1.140625 -0.5625 1.140625 -0.25 0.4375 -0.25 L 0.4375 0 C 0.71875 -0.015625 1 -0.03125 1.28125 -0.03125 C 1.5625 -0.03125 1.84375 -0.015625 2.125 0 L 2.125 -0.25 C 1.40625 -0.25 1.40625 -0.5625 1.40625 -0.75 L 1.40625 -4.421875 L 1.421875 -4.421875 L 3.21875 -0.15625 C 3.265625 -0.078125 3.296875 0 3.40625 0 C 3.453125 0 3.515625 -0.015625 3.5625 -0.140625 L 5.40625 -4.484375 L 5.40625 -0.5625 C 5.40625 -0.328125 5.390625 -0.25 4.859375 -0.25 L 4.6875 -0.25 L 4.6875 0 C 5.03125 -0.015625 5.421875 -0.03125 5.703125 -0.03125 C 5.984375 -0.03125 6.375 -0.015625 6.703125 0 L 6.703125 -0.25 L 6.546875 -0.25 C 6 -0.25 6 -0.3125 6 -0.5625 L 6 -4.1875 C 6 -4.421875 6 -4.5 6.546875 -4.5 L 6.703125 -4.5 L 6.703125 -4.75 L 5.5 -4.75 C 5.359375 -4.75 5.296875 -4.75 5.25 -4.609375 L 3.578125 -0.671875 Z M 1.90625 -4.59375 "/>
</g>
<g id="glyph-4-23">
<path d="M 1.515625 -0.390625 C 1.515625 -0.640625 1.328125 -0.796875 1.125 -0.796875 C 0.890625 -0.796875 0.71875 -0.609375 0.71875 -0.40625 C 0.71875 -0.15625 0.921875 0 1.125 0 C 1.359375 0 1.515625 -0.1875 1.515625 -0.390625 Z M 1.515625 -0.390625 "/>
</g>
<g id="glyph-4-24">
<path d="M 5.1875 -1.359375 C 5.1875 -1.671875 5.25 -1.671875 5.71875 -1.671875 L 5.71875 -1.921875 C 5.671875 -1.921875 5.15625 -1.890625 4.8125 -1.890625 C 4.453125 -1.890625 3.921875 -1.890625 3.5625 -1.921875 L 3.5625 -1.671875 L 3.828125 -1.671875 C 4.515625 -1.671875 4.515625 -1.578125 4.515625 -1.34375 L 4.515625 -0.90625 C 4.515625 -0.75 4.515625 -0.484375 4.125 -0.28125 C 3.78125 -0.109375 3.390625 -0.109375 3.296875 -0.109375 C 2.515625 -0.109375 1.234375 -0.5625 1.234375 -2.375 C 1.234375 -4.234375 2.546875 -4.640625 3.234375 -4.640625 C 3.921875 -4.640625 4.75 -4.1875 4.9375 -2.984375 C 4.9375 -2.90625 5 -2.90625 5.0625 -2.90625 C 5.1875 -2.90625 5.1875 -2.9375 5.1875 -3.078125 L 5.1875 -4.703125 C 5.1875 -4.828125 5.1875 -4.890625 5.078125 -4.890625 C 5.0625 -4.890625 5.015625 -4.890625 4.96875 -4.8125 L 4.59375 -4.28125 C 4.25 -4.625 3.765625 -4.890625 3.15625 -4.890625 C 1.703125 -4.890625 0.484375 -3.765625 0.484375 -2.375 C 0.484375 -1 1.671875 0.140625 3.171875 0.140625 C 3.546875 0.140625 4.328125 0.0625 4.65625 -0.421875 C 4.765625 -0.234375 5.03125 0 5.09375 0 C 5.1875 0 5.1875 -0.078125 5.1875 -0.1875 Z M 5.1875 -1.359375 "/>
</g>
<g id="glyph-4-25">
<path d="M 1.390625 -1.578125 C 1.390625 -2.171875 1.65625 -2.875 2.3125 -2.875 C 2.25 -2.828125 2.203125 -2.734375 2.203125 -2.625 C 2.203125 -2.390625 2.375 -2.296875 2.515625 -2.296875 C 2.671875 -2.296875 2.828125 -2.40625 2.828125 -2.625 C 2.828125 -2.859375 2.609375 -3.0625 2.28125 -3.0625 C 1.9375 -3.0625 1.546875 -2.84375 1.34375 -2.328125 L 1.328125 -2.328125 L 1.328125 -3.0625 L 0.34375 -2.984375 L 0.34375 -2.734375 C 0.8125 -2.734375 0.859375 -2.6875 0.859375 -2.34375 L 0.859375 -0.546875 C 0.859375 -0.25 0.796875 -0.25 0.34375 -0.25 L 0.34375 0 C 0.375 0 0.84375 -0.03125 1.140625 -0.03125 C 1.4375 -0.03125 1.734375 -0.015625 2.03125 0 L 2.03125 -0.25 L 1.890625 -0.25 C 1.390625 -0.25 1.390625 -0.328125 1.390625 -0.5625 Z M 1.390625 -1.578125 "/>
</g>
<g id="glyph-4-26">
<path d="M 2.71875 -3.015625 C 2.640625 -3.015625 2.59375 -3.015625 2.59375 -3 C 2.578125 -3 2.5625 -3 2.46875 -3 L 1.359375 -3 L 1.359375 -3.75 C 1.359375 -4.4375 2.078125 -4.703125 2.546875 -4.703125 C 2.78125 -4.703125 3.03125 -4.65625 3.203125 -4.5 C 2.953125 -4.453125 2.9375 -4.25 2.9375 -4.171875 C 2.9375 -3.953125 3.109375 -3.828125 3.28125 -3.828125 C 3.40625 -3.828125 3.609375 -3.921875 3.609375 -4.1875 C 3.609375 -4.5625 3.21875 -4.890625 2.578125 -4.890625 C 1.859375 -4.890625 0.859375 -4.5625 0.859375 -3.765625 L 0.859375 -3 L 0.265625 -3 L 0.265625 -2.75 L 0.859375 -2.75 L 0.859375 -0.546875 C 0.859375 -0.25 0.796875 -0.25 0.34375 -0.25 L 0.34375 0 C 0.359375 0 0.84375 -0.03125 1.125 -0.03125 C 1.390625 -0.03125 1.640625 -0.015625 1.90625 0 L 1.90625 -0.25 C 1.453125 -0.25 1.390625 -0.25 1.390625 -0.546875 L 1.390625 -2.75 L 2.765625 -2.75 C 3.046875 -2.75 3.109375 -2.671875 3.109375 -2.375 L 3.109375 -0.546875 C 3.109375 -0.25 3.03125 -0.25 2.59375 -0.25 L 2.59375 0 C 2.59375 0 3.09375 -0.03125 3.359375 -0.03125 C 3.625 -0.03125 3.890625 -0.015625 4.15625 0 L 4.15625 -0.25 C 3.703125 -0.25 3.625 -0.25 3.625 -0.546875 L 3.625 -3.078125 Z M 2.71875 -3.015625 "/>
</g>
<g id="glyph-4-27">
<path d="M 2.46875 -5.21875 C 1.140625 -4.28125 0.796875 -2.8125 0.796875 -1.75 C 0.796875 -0.765625 1.09375 0.765625 2.46875 1.734375 C 2.53125 1.734375 2.609375 1.734375 2.609375 1.640625 C 2.609375 1.609375 2.59375 1.59375 2.53125 1.546875 C 1.609375 0.703125 1.265625 -0.46875 1.265625 -1.734375 C 1.265625 -3.609375 1.984375 -4.53125 2.5625 -5.046875 C 2.59375 -5.078125 2.609375 -5.09375 2.609375 -5.125 C 2.609375 -5.21875 2.53125 -5.21875 2.46875 -5.21875 Z M 2.46875 -5.21875 "/>
</g>
<g id="glyph-4-28">
<path d="M 2.328125 -4.421875 C 2.328125 -4.609375 2.3125 -4.609375 2.125 -4.609375 C 1.671875 -4.171875 1.046875 -4.171875 0.765625 -4.171875 L 0.765625 -3.921875 C 0.921875 -3.921875 1.390625 -3.921875 1.765625 -4.109375 L 1.765625 -0.5625 C 1.765625 -0.34375 1.765625 -0.25 1.078125 -0.25 L 0.8125 -0.25 L 0.8125 0 C 0.9375 0 1.78125 -0.03125 2.046875 -0.03125 C 2.265625 -0.03125 3.140625 0 3.28125 0 L 3.28125 -0.25 L 3.03125 -0.25 C 2.328125 -0.25 2.328125 -0.34375 2.328125 -0.5625 Z M 2.328125 -4.421875 "/>
</g>
<g id="glyph-4-29">
<path d="M 0.625 -5.21875 C 0.578125 -5.21875 0.5 -5.21875 0.5 -5.125 C 0.5 -5.09375 0.515625 -5.078125 0.5625 -5.03125 C 1.15625 -4.484375 1.828125 -3.546875 1.828125 -1.75 C 1.828125 -0.296875 1.375 0.8125 0.625 1.484375 C 0.5 1.609375 0.5 1.609375 0.5 1.640625 C 0.5 1.6875 0.515625 1.734375 0.578125 1.734375 C 0.671875 1.734375 1.328125 1.265625 1.78125 0.40625 C 2.09375 -0.171875 2.296875 -0.921875 2.296875 -1.734375 C 2.296875 -2.71875 2 -4.234375 0.625 -5.21875 Z M 0.625 -5.21875 "/>
</g>
<g id="glyph-4-30">
<path d="M 1.9375 1.09375 C 1.484375 1.09375 1.40625 1.09375 1.40625 0.796875 L 1.40625 -0.328125 C 1.453125 -0.296875 1.765625 0.0625 2.359375 0.0625 C 3.28125 0.0625 4.0625 -0.625 4.0625 -1.5 C 4.0625 -2.359375 3.34375 -3.0625 2.46875 -3.0625 C 2.078125 -3.0625 1.671875 -2.921875 1.390625 -2.640625 L 1.390625 -3.0625 L 0.34375 -2.984375 L 0.34375 -2.734375 C 0.828125 -2.734375 0.859375 -2.703125 0.859375 -2.40625 L 0.859375 0.796875 C 0.859375 1.09375 0.796875 1.09375 0.34375 1.09375 L 0.34375 1.34375 C 0.359375 1.34375 0.84375 1.328125 1.140625 1.328125 C 1.390625 1.328125 1.875 1.34375 1.9375 1.34375 Z M 1.40625 -2.3125 C 1.625 -2.65625 2.015625 -2.84375 2.390625 -2.84375 C 2.96875 -2.84375 3.421875 -2.234375 3.421875 -1.5 C 3.421875 -0.703125 2.90625 -0.125 2.3125 -0.125 C 1.703125 -0.125 1.4375 -0.65625 1.40625 -0.703125 Z M 1.40625 -2.3125 "/>
</g>
<g id="glyph-4-31">
<path d="M 3.296875 -2.3125 C 3.484375 -2.734375 3.84375 -2.75 3.953125 -2.75 L 3.953125 -3 C 3.78125 -2.984375 3.59375 -2.96875 3.421875 -2.96875 C 3.234375 -2.96875 2.96875 -2.96875 2.78125 -3 L 2.78125 -2.75 C 3.078125 -2.734375 3.078125 -2.5 3.078125 -2.484375 C 3.078125 -2.453125 3.078125 -2.375 3.03125 -2.28125 L 2.234375 -0.5625 L 1.375 -2.453125 C 1.375 -2.46875 1.328125 -2.53125 1.328125 -2.59375 C 1.328125 -2.75 1.578125 -2.75 1.6875 -2.75 L 1.6875 -3 C 1.671875 -3 1.1875 -2.96875 0.890625 -2.96875 C 0.6875 -2.96875 0.421875 -2.96875 0.21875 -3 L 0.21875 -2.75 C 0.59375 -2.75 0.6875 -2.734375 0.78125 -2.5 L 1.890625 -0.078125 C 1.921875 0 1.953125 0.0625 2.078125 0.0625 C 2.21875 0.0625 2.234375 0 2.28125 -0.0625 Z M 3.296875 -2.3125 "/>
</g>
<g id="glyph-4-32">
<path d="M 5.171875 -4.703125 C 5.171875 -4.828125 5.171875 -4.890625 5.078125 -4.890625 C 5.046875 -4.890625 5.015625 -4.890625 4.953125 -4.8125 L 4.59375 -4.28125 C 4.296875 -4.5625 3.8125 -4.890625 3.15625 -4.890625 C 1.6875 -4.890625 0.484375 -3.765625 0.484375 -2.375 C 0.484375 -0.96875 1.703125 0.140625 3.15625 0.140625 C 4.375 0.140625 5.171875 -0.78125 5.171875 -1.625 C 5.171875 -1.703125 5.171875 -1.765625 5.0625 -1.765625 C 5.015625 -1.765625 4.9375 -1.765625 4.9375 -1.671875 C 4.875 -0.546875 3.9375 -0.109375 3.25 -0.109375 C 2.5 -0.109375 1.234375 -0.5625 1.234375 -2.375 C 1.234375 -4.25 2.578125 -4.640625 3.234375 -4.640625 C 3.921875 -4.640625 4.734375 -4.171875 4.921875 -2.984375 C 4.9375 -2.90625 5 -2.90625 5.046875 -2.90625 C 5.171875 -2.90625 5.171875 -2.9375 5.171875 -3.078125 Z M 5.171875 -4.703125 "/>
</g>
<g id="glyph-4-33">
<path d="M 1.4375 -2.75 L 2.296875 -2.75 L 2.296875 -3 L 1.40625 -3 L 1.40625 -3.78125 C 1.40625 -4.40625 1.78125 -4.703125 2.078125 -4.703125 C 2.140625 -4.703125 2.21875 -4.6875 2.28125 -4.671875 C 2.1875 -4.609375 2.125 -4.5 2.125 -4.390625 C 2.125 -4.203125 2.265625 -4.0625 2.453125 -4.0625 C 2.640625 -4.0625 2.765625 -4.203125 2.765625 -4.390625 C 2.765625 -4.6875 2.46875 -4.890625 2.09375 -4.890625 C 1.53125 -4.890625 0.90625 -4.5 0.90625 -3.78125 L 0.90625 -3 L 0.3125 -3 L 0.3125 -2.75 L 0.90625 -2.75 L 0.90625 -0.546875 C 0.90625 -0.25 0.84375 -0.25 0.390625 -0.25 L 0.390625 0 C 0.421875 0 0.890625 -0.03125 1.1875 -0.03125 C 1.484375 -0.03125 1.78125 -0.015625 2.09375 0 L 2.09375 -0.25 L 1.953125 -0.25 C 1.4375 -0.25 1.4375 -0.328125 1.4375 -0.5625 Z M 1.4375 -2.75 "/>
</g>
<g id="glyph-4-34">
<path d="M 3.484375 -2.375 C 4.109375 -2.515625 4.734375 -2.921875 4.734375 -3.484375 C 4.734375 -4.1875 3.828125 -4.75 2.75 -4.75 L 0.40625 -4.75 L 0.40625 -4.5 L 0.5625 -4.5 C 1.109375 -4.5 1.125 -4.421875 1.125 -4.1875 L 1.125 -0.5625 C 1.125 -0.328125 1.109375 -0.25 0.5625 -0.25 L 0.40625 -0.25 L 0.40625 0 C 0.40625 0 1.140625 -0.03125 1.4375 -0.03125 C 1.71875 -0.03125 2.125 -0.015625 2.46875 0 L 2.46875 -0.25 L 2.296875 -0.25 C 1.765625 -0.25 1.75 -0.3125 1.75 -0.5625 L 1.75 -2.28125 L 2.671875 -2.28125 C 2.796875 -2.28125 3.15625 -2.28125 3.46875 -2 C 3.71875 -1.78125 3.71875 -1.609375 3.71875 -1.140625 C 3.71875 -0.6875 3.71875 -0.40625 4.03125 -0.140625 C 4.328125 0.109375 4.734375 0.140625 4.9375 0.140625 C 5.53125 0.140625 5.6875 -0.421875 5.6875 -0.625 C 5.6875 -0.6875 5.6875 -0.765625 5.5625 -0.765625 C 5.453125 -0.765625 5.453125 -0.703125 5.4375 -0.625 C 5.40625 -0.234375 5.1875 -0.0625 4.96875 -0.0625 C 4.5625 -0.0625 4.515625 -0.46875 4.421875 -1.09375 C 4.359375 -1.65625 4.328125 -1.765625 4.125 -2 C 4.0625 -2.078125 3.859375 -2.25 3.484375 -2.375 Z M 2.65625 -2.46875 L 1.75 -2.46875 L 1.75 -4.234375 C 1.75 -4.421875 1.765625 -4.46875 1.9375 -4.484375 C 2 -4.5 2.234375 -4.5 2.375 -4.5 C 3.046875 -4.5 4 -4.5 4 -3.484375 C 4 -2.71875 3.390625 -2.46875 2.65625 -2.46875 Z M 2.65625 -2.46875 "/>
</g>
<g id="glyph-4-35">
<path d="M 1.4375 -4.15625 C 1.4375 -3.9375 1.4375 -3.359375 0.890625 -2.875 C 0.828125 -2.84375 0.828125 -2.8125 0.828125 -2.78125 C 0.828125 -2.734375 0.875 -2.671875 0.921875 -2.671875 C 1 -2.671875 1.625 -3.21875 1.625 -4.0625 C 1.625 -4.484375 1.453125 -4.828125 1.125 -4.828125 C 0.875 -4.828125 0.71875 -4.640625 0.71875 -4.421875 C 0.71875 -4.25 0.828125 -4.03125 1.125 -4.03125 C 1.328125 -4.03125 1.390625 -4.09375 1.4375 -4.15625 Z M 1.4375 -4.15625 "/>
</g>
<g id="glyph-4-36">
<path d="M 3.0625 -2.75 C 3.109375 -2.8125 3.125 -2.84375 3.125 -2.890625 C 3.125 -3 3.046875 -3 2.9375 -3 L 0.453125 -3 L 0.375 -1.828125 L 0.609375 -1.828125 C 0.65625 -2.5625 0.828125 -2.796875 1.609375 -2.796875 L 2.4375 -2.796875 L 0.328125 -0.265625 C 0.265625 -0.1875 0.265625 -0.15625 0.265625 -0.125 C 0.265625 0 0.34375 0 0.46875 0 L 3.03125 0 L 3.15625 -1.34375 L 2.90625 -1.34375 C 2.84375 -0.53125 2.703125 -0.21875 1.828125 -0.21875 L 0.96875 -0.21875 Z M 3.0625 -2.75 "/>
</g>
<g id="glyph-4-37">
<path d="M 2.1875 -1.265625 L 2.1875 -1.734375 L 0.140625 -1.734375 L 0.140625 -1.265625 Z M 2.1875 -1.265625 "/>
</g>
<g id="glyph-5-0">
<path d="M 3.109375 -0.96875 C 3.078125 -1.375 2.84375 -3.0625 1.703125 -3.0625 C 1.296875 -3.0625 0.9375 -2.84375 0.75 -2.65625 C 0.3125 -2.28125 0.234375 -1.828125 0.234375 -1.8125 C 0.234375 -1.734375 0.328125 -1.734375 0.34375 -1.734375 C 0.4375 -1.734375 0.4375 -1.75 0.484375 -1.84375 C 0.625 -2.265625 1.140625 -2.515625 1.609375 -2.515625 C 2.71875 -2.515625 2.875 -1.390625 2.875 -0.6875 C 2.875 -0.328125 2.84375 -0.25 2.828125 -0.1875 C 2.65625 0.34375 2.453125 1.109375 2.453125 1.328125 C 2.453125 1.390625 2.484375 1.484375 2.578125 1.484375 C 2.625 1.484375 2.703125 1.484375 2.8125 1.125 C 2.890625 0.859375 3.03125 0.34375 3.078125 -0.15625 C 3.109375 -0.40625 3.5 -1.34375 3.640625 -1.671875 C 3.734375 -1.890625 3.890625 -2.21875 4.21875 -2.828125 C 4.234375 -2.859375 4.25 -2.890625 4.25 -2.90625 C 4.25 -3 4.15625 -3 4.140625 -3 C 4.109375 -3 4.046875 -3 4.03125 -2.96875 C 3.953125 -2.8125 3.421875 -1.828125 3.109375 -0.96875 Z M 3.109375 -0.96875 "/>
</g>
<g id="glyph-6-0">
<path d="M 4.25 -2.09375 C 4.25 -2.953125 3.703125 -3.125 3.0625 -3.125 C 2.296875 -3.125 1.90625 -2.71875 1.75 -2.46875 L 1.75 -4.828125 L 0.4375 -4.765625 L 0.4375 -4.375 C 0.859375 -4.375 0.90625 -4.375 0.90625 -4.109375 L 0.90625 -0.390625 L 0.4375 -0.390625 L 0.4375 0 C 0.453125 0 1.015625 -0.03125 1.34375 -0.03125 C 1.6875 -0.03125 2.25 0 2.265625 0 L 2.265625 -0.390625 L 1.796875 -0.390625 L 1.796875 -1.734375 C 1.796875 -2.53125 2.515625 -2.8125 2.9375 -2.8125 C 3.234375 -2.8125 3.375 -2.65625 3.375 -2.15625 L 3.375 -0.390625 L 2.90625 -0.390625 L 2.90625 0 C 2.90625 0 3.484375 -0.03125 3.8125 -0.03125 C 4.15625 -0.03125 4.71875 0 4.71875 0 L 4.71875 -0.390625 L 4.25 -0.390625 Z M 4.25 -2.09375 "/>
</g>
<g id="glyph-7-0">
<path d="M 1.78125 -2.3125 C 1.796875 -2.3125 1.84375 -2.40625 1.84375 -2.484375 C 1.84375 -2.65625 1.671875 -2.78125 1.53125 -2.78125 C 1.328125 -2.78125 1.265625 -2.625 1.25 -2.546875 L 0.484375 -0.390625 C 0.46875 -0.34375 0.46875 -0.328125 0.46875 -0.3125 C 0.46875 -0.234375 0.671875 -0.1875 0.671875 -0.1875 C 0.71875 -0.1875 0.734375 -0.21875 0.765625 -0.265625 Z M 1.78125 -2.3125 "/>
</g>
<g id="glyph-8-0">
<path d="M 2.921875 -0.953125 L 2.71875 -0.953125 C 2.703125 -0.859375 2.65625 -0.5625 2.578125 -0.5 C 2.53125 -0.484375 2.109375 -0.484375 2.046875 -0.484375 L 1.0625 -0.484375 C 1.390625 -0.71875 1.765625 -1 2.0625 -1.203125 C 2.515625 -1.5 2.921875 -1.796875 2.921875 -2.328125 C 2.921875 -2.953125 2.328125 -3.3125 1.609375 -3.3125 C 0.9375 -3.3125 0.453125 -2.921875 0.453125 -2.4375 C 0.453125 -2.171875 0.671875 -2.125 0.734375 -2.125 C 0.875 -2.125 1.03125 -2.21875 1.03125 -2.421875 C 1.03125 -2.609375 0.90625 -2.703125 0.75 -2.71875 C 0.890625 -2.9375 1.171875 -3.09375 1.515625 -3.09375 C 2 -3.09375 2.390625 -2.796875 2.390625 -2.3125 C 2.390625 -1.890625 2.109375 -1.578125 1.71875 -1.25 L 0.515625 -0.234375 C 0.46875 -0.1875 0.453125 -0.1875 0.453125 -0.15625 L 0.453125 0 L 2.765625 0 Z M 2.921875 -0.953125 "/>
</g>
</g>
<clipPath id="clip-0">
<path clip-rule="nonzero" d="M 0.4375 17 L 24 17 L 24 55 L 0.4375 55 Z M 0.4375 17 "/>
</clipPath>
</defs>
<path fill-rule="nonzero" fill="rgb(93.998718%, 93.998718%, 93.998718%)" fill-opacity="1" d="M 15.445312 23.347656 L 5.601562 23.347656 C 4.503906 23.347656 3.613281 24.234375 3.613281 25.332031 L 3.613281 46.785156 C 3.613281 47.878906 4.503906 48.769531 5.601562 48.769531 L 15.445312 48.769531 C 16.542969 48.769531 17.429688 47.878906 17.429688 46.785156 L 17.429688 25.332031 C 17.429688 24.234375 16.542969 23.347656 15.445312 23.347656 Z M 15.445312 23.347656 "/>
<g clip-path="url(#clip-0)">
<path fill="none" stroke-width="0.3985" stroke-linecap="butt" stroke-linejoin="miter" stroke="rgb(64.99939%, 64.99939%, 64.99939%)" stroke-opacity="1" stroke-miterlimit="10" d="M 4.940422 12.754951 L -4.938066 12.754951 C -6.039596 12.754951 -6.933364 11.865103 -6.933364 10.763573 L -6.933364 -10.765259 C -6.933364 -11.862869 -6.039596 -12.756637 -4.938066 -12.756637 L 4.940422 -12.756637 C 6.041952 -12.756637 6.9318 -11.862869 6.9318 -10.765259 L 6.9318 10.763573 C 6.9318 11.865103 6.041952 12.754951 4.940422 12.754951 Z M 4.940422 12.754951 " transform="matrix(0.996483, 0, 0, -0.996483, 10.522263, 36.057753)"/>
</g>
<g fill="rgb(64.99939%, 64.99939%, 64.99939%)" fill-opacity="1">
<use xlink:href="#glyph-0-0" x="7.585627" y="39.159806"/>
</g>
<path fill-rule="nonzero" fill="rgb(87.998962%, 87.998962%, 100%)" fill-opacity="1" stroke-width="0.3985" stroke-linecap="butt" stroke-linejoin="miter" stroke="rgb(64.99939%, 64.99939%, 64.99939%)" stroke-opacity="1" stroke-miterlimit="10" d="M 91.871119 12.754951 L 49.009456 12.754951 C 47.907926 12.754951 47.018078 11.865103 47.018078 10.763573 L 47.018078 -10.765259 C 47.018078 -11.862869 47.907926 -12.756637 49.009456 -12.756637 L 91.871119 -12.756637 C 92.972649 -12.756637 93.862497 -11.862869 93.862497 -10.765259 L 93.862497 10.763573 C 93.862497 11.865103 92.972649 12.754951 91.871119 12.754951 Z M 91.871119 12.754951 " transform="matrix(0.996483, 0, 0, -0.996483, 10.522263, 36.057753)"/>
<g fill="rgb(64.99939%, 64.99939%, 64.99939%)" fill-opacity="1">
<use xlink:href="#glyph-1-0" x="61.343916" y="38.290873"/>
<use xlink:href="#glyph-1-1" x="67.976269" y="38.290873"/>
<use xlink:href="#glyph-1-2" x="74.862373" y="38.290873"/>
</g>
<g fill="rgb(64.99939%, 64.99939%, 64.99939%)" fill-opacity="1">
<use xlink:href="#glyph-0-0" x="78.43364" y="38.290873"/>
</g>
<g fill="rgb(64.99939%, 64.99939%, 64.99939%)" fill-opacity="1">
<use xlink:href="#glyph-2-0" x="84.307423" y="38.290873"/>
</g>
<g fill="rgb(64.99939%, 64.99939%, 64.99939%)" fill-opacity="1">
<use xlink:href="#glyph-0-1" x="88.386191" y="38.290873"/>
</g>
<g fill="rgb(64.99939%, 64.99939%, 64.99939%)" fill-opacity="1">
<use xlink:href="#glyph-1-3" x="96.516028" y="38.290873"/>
</g>
<path fill-rule="nonzero" fill="rgb(96.499634%, 85.998535%, 89.498901%)" fill-opacity="1" stroke-width="0.3985" stroke-linecap="butt" stroke-linejoin="miter" stroke="rgb(64.99939%, 64.99939%, 64.99939%)" stroke-opacity="1" stroke-miterlimit="10" d="M 157.206343 -0.000843305 C 157.206343 7.988188 150.730445 14.464086 142.741414 14.464086 C 134.752382 14.464086 128.280404 7.988188 128.280404 -0.000843305 C 128.280404 -7.985955 134.752382 -14.461853 142.741414 -14.461853 C 150.730445 -14.461853 157.206343 -7.985955 157.206343 -0.000843305 Z M 157.206343 -0.000843305 " transform="matrix(0.996483, 0, 0, -0.996483, 10.522263, 36.057753)"/>
<g fill="rgb(64.99939%, 64.99939%, 64.99939%)" fill-opacity="1">
<use xlink:href="#glyph-1-4" x="140.185686" y="38.290873"/>
<use xlink:href="#glyph-1-5" x="143.756953" y="38.290873"/>
<use xlink:href="#glyph-1-6" x="148.348582" y="38.290873"/>
<use xlink:href="#glyph-1-7" x="153.450392" y="38.290873"/>
</g>
<g fill="rgb(64.99939%, 64.99939%, 64.99939%)" fill-opacity="1">
<use xlink:href="#glyph-2-1" x="160.080065" y="38.290873"/>
</g>
<path fill="none" stroke-width="0.3985" stroke-linecap="butt" stroke-linejoin="miter" stroke="rgb(64.99939%, 64.99939%, 64.99939%)" stroke-opacity="1" stroke-miterlimit="10" d="M 211.463548 -0.000843305 C 211.463548 5.479366 207.022148 9.920765 201.541939 9.920765 C 196.06173 9.920765 191.62033 5.479366 191.62033 -0.000843305 C 191.62033 -5.481052 196.06173 -9.922452 201.541939 -9.922452 C 207.022148 -9.922452 211.463548 -5.481052 211.463548 -0.000843305 Z M 211.463548 -0.000843305 " transform="matrix(0.996483, 0, 0, -0.996483, 10.522263, 36.057753)"/>
<g fill="rgb(64.99939%, 64.99939%, 64.99939%)" fill-opacity="1">
<use xlink:href="#glyph-1-8" x="207.781144" y="38.290873"/>
</g>
<path fill-rule="nonzero" fill="rgb(93.998718%, 93.998718%, 93.998718%)" fill-opacity="1" stroke-width="0.3985" stroke-linecap="butt" stroke-linejoin="miter" stroke="rgb(64.99939%, 64.99939%, 64.99939%)" stroke-opacity="1" stroke-miterlimit="10" d="M 260.432625 12.754951 L 247.868913 12.754951 C 246.767383 12.754951 245.877535 11.865103 245.877535 10.763573 L 245.877535 -10.765259 C 245.877535 -11.862869 246.767383 -12.756637 247.868913 -12.756637 L 260.432625 -12.756637 C 261.534155 -12.756637 262.424003 -11.862869 262.424003 -10.765259 L 262.424003 10.763573 C 262.424003 11.865103 261.534155 12.754951 260.432625 12.754951 Z M 260.432625 12.754951 " transform="matrix(0.996483, 0, 0, -0.996483, 10.522263, 36.057753)"/>
<g fill="rgb(64.99939%, 64.99939%, 64.99939%)" fill-opacity="1">
<use xlink:href="#glyph-0-0" x="259.50262" y="39.610217"/>
</g>
<g fill="rgb(64.99939%, 64.99939%, 64.99939%)" fill-opacity="1">
<use xlink:href="#glyph-3-0" x="265.375894" y="35.814611"/>
</g>
<path fill-rule="nonzero" fill="rgb(100%, 93.998718%, 87.998962%)" fill-opacity="1" stroke-width="0.3985" stroke-linecap="butt" stroke-linejoin="miter" stroke="rgb(64.99939%, 64.99939%, 64.99939%)" stroke-opacity="1" stroke-miterlimit="10" d="M 76.508502 -41.502254 L 64.372073 -41.502254 C 63.270543 -41.502254 62.376775 -42.392102 62.376775 -43.493632 L 62.376775 -65.022464 C 62.376775 -66.120074 63.270543 -67.013842 64.372073 -67.013842 L 76.508502 -67.013842 C 77.610032 -67.013842 78.5038 -66.120074 78.5038 -65.022464 L 78.5038 -43.493632 C 78.5038 -42.392102 77.610032 -41.502254 76.508502 -41.502254 Z M 76.508502 -41.502254 " transform="matrix(0.996483, 0, 0, -0.996483, 10.522263, 36.057753)"/>
<g fill="rgb(64.99939%, 64.99939%, 64.99939%)" fill-opacity="1">
<use xlink:href="#glyph-0-1" x="76.651894" y="93.188142"/>
</g>
<path fill="none" stroke-width="0.79701" stroke-linecap="butt" stroke-linejoin="miter" stroke="rgb(69.999695%, 69.999695%, 69.999695%)" stroke-opacity="1" stroke-miterlimit="10" d="M 7.131722 -0.000843305 L 42.937322 -0.000843305 " transform="matrix(0.996483, 0, 0, -0.996483, 10.522263, 36.057753)"/>
<path fill-rule="nonzero" fill="rgb(69.999695%, 69.999695%, 69.999695%)" fill-opacity="1" stroke-width="0.79701" stroke-linecap="butt" stroke-linejoin="miter" stroke="rgb(69.999695%, 69.999695%, 69.999695%)" stroke-opacity="1" stroke-miterlimit="10" d="M 5.100456 -0.000843305 L 1.286262 1.44173 L 2.552434 -0.000843305 L 1.286262 -1.443416 Z M 5.100456 -0.000843305 " transform="matrix(0.996483, 0, 0, -0.996483, 50.960448, 36.057753)"/>
<path fill="none" stroke-width="0.79701" stroke-linecap="butt" stroke-linejoin="miter" stroke="rgb(69.999695%, 69.999695%, 69.999695%)" stroke-opacity="1" stroke-miterlimit="10" d="M 94.062419 -0.000843305 L 124.199648 -0.000843305 " transform="matrix(0.996483, 0, 0, -0.996483, 10.522263, 36.057753)"/>
<path fill-rule="nonzero" fill="rgb(69.999695%, 69.999695%, 69.999695%)" fill-opacity="1" stroke-width="0.79701" stroke-linecap="butt" stroke-linejoin="miter" stroke="rgb(69.999695%, 69.999695%, 69.999695%)" stroke-opacity="1" stroke-miterlimit="10" d="M 5.100622 -0.000843305 L 1.286428 1.44173 L 2.5526 -0.000843305 L 1.286428 -1.443416 Z M 5.100622 -0.000843305 " transform="matrix(0.996483, 0, 0, -0.996483, 131.936845, 36.057753)"/>
<path fill="none" stroke-width="0.79701" stroke-linecap="butt" stroke-linejoin="miter" stroke="rgb(69.999695%, 69.999695%, 69.999695%)" stroke-opacity="1" stroke-miterlimit="10" d="M 157.402345 -0.000843305 L 187.539574 -0.000843305 " transform="matrix(0.996483, 0, 0, -0.996483, 10.522263, 36.057753)"/>
<path fill-rule="nonzero" fill="rgb(69.999695%, 69.999695%, 69.999695%)" fill-opacity="1" stroke-width="0.79701" stroke-linecap="butt" stroke-linejoin="miter" stroke="rgb(69.999695%, 69.999695%, 69.999695%)" stroke-opacity="1" stroke-miterlimit="10" d="M 5.099798 -0.000843305 L 1.285604 1.44173 L 2.555696 -0.000843305 L 1.285604 -1.443416 Z M 5.099798 -0.000843305 " transform="matrix(0.996483, 0, 0, -0.996483, 195.054854, 36.057753)"/>
<path fill="none" stroke-width="0.79701" stroke-linecap="butt" stroke-linejoin="miter" stroke="rgb(69.999695%, 69.999695%, 69.999695%)" stroke-opacity="1" stroke-miterlimit="10" d="M 211.659549 -0.000843305 L 241.796779 -0.000843305 " transform="matrix(0.996483, 0, 0, -0.996483, 10.522263, 36.057753)"/>
<path fill-rule="nonzero" fill="rgb(69.999695%, 69.999695%, 69.999695%)" fill-opacity="1" stroke-width="0.79701" stroke-linecap="butt" stroke-linejoin="miter" stroke="rgb(69.999695%, 69.999695%, 69.999695%)" stroke-opacity="1" stroke-miterlimit="10" d="M 5.099563 -0.000843305 L 1.285369 1.44173 L 2.55546 -0.000843305 L 1.285369 -1.443416 Z M 5.099563 -0.000843305 " transform="matrix(0.996483, 0, 0, -0.996483, 249.121495, 36.057753)"/>
<path fill="none" stroke-width="0.79701" stroke-linecap="butt" stroke-linejoin="miter" stroke="rgb(69.999695%, 69.999695%, 69.999695%)" stroke-opacity="1" stroke-miterlimit="10" d="M 70.440288 -41.302332 L 70.440288 -16.837394 " transform="matrix(0.996483, 0, 0, -0.996483, 10.522263, 36.057753)"/>
<path fill-rule="nonzero" fill="rgb(69.999695%, 69.999695%, 69.999695%)" fill-opacity="1" stroke-width="0.79701" stroke-linecap="butt" stroke-linejoin="miter" stroke="rgb(69.999695%, 69.999695%, 69.999695%)" stroke-opacity="1" stroke-miterlimit="10" d="M 5.102121 -0.000127543 L 1.287927 1.442445 L 2.554098 -0.000127543 L 1.287927 -1.4427 Z M 5.102121 -0.000127543 " transform="matrix(0, -0.996483, -0.996483, 0, 80.714717, 55.181835)"/>
<path fill="none" stroke-width="0.79701" stroke-linecap="butt" stroke-linejoin="miter" stroke="rgb(69.999695%, 69.999695%, 69.999695%)" stroke-opacity="1" stroke-miterlimit="10" d="M 0.0011782 12.954872 L 0.0011782 32.79809 L 201.541939 32.79809 L 201.541939 14.001522 " transform="matrix(0.996483, 0, 0, -0.996483, 10.522263, 36.057753)"/>
<path fill-rule="nonzero" fill="rgb(69.999695%, 69.999695%, 69.999695%)" fill-opacity="1" stroke-width="0.79701" stroke-linecap="butt" stroke-linejoin="miter" stroke="rgb(69.999695%, 69.999695%, 69.999695%)" stroke-opacity="1" stroke-miterlimit="10" d="M 5.099403 0.00122888 L 1.285209 1.443802 L 2.5553 0.00122888 L 1.285209 -1.445264 Z M 5.099403 0.00122888 " transform="matrix(0, 0.996483, 0.996483, 0, 211.354244, 19.758373)"/>
<g fill="rgb(25%, 25%, 25%)" fill-opacity="1">
<use xlink:href="#glyph-4-0" x="19.561365" y="126.416879"/>
</g>
<g fill="rgb(25%, 25%, 25%)" fill-opacity="1">
<use xlink:href="#glyph-4-1" x="25.206262" y="126.416879"/>
</g>
<g fill="rgb(25%, 25%, 25%)" fill-opacity="1">
<use xlink:href="#glyph-5-0" x="30.949144" y="126.416879"/>
</g>
<g fill="rgb(25%, 25%, 25%)" fill-opacity="1">
<use xlink:href="#glyph-4-2" x="39.358463" y="126.416879"/>
</g>
<g fill="rgb(25%, 25%, 25%)" fill-opacity="1">
<use xlink:href="#glyph-4-3" x="49.268131" y="126.416879"/>
</g>
<g fill="rgb(25%, 25%, 25%)" fill-opacity="1">
<use xlink:href="#glyph-4-4" x="53.218794" y="126.416879"/>
</g>
<g fill="rgb(25%, 25%, 25%)" fill-opacity="1">
<use xlink:href="#glyph-4-1" x="59.427278" y="126.416879"/>
<use xlink:href="#glyph-4-5" x="62.529435" y="126.416879"/>
<use xlink:href="#glyph-4-6" x="66.487047" y="126.416879"/>
<use xlink:href="#glyph-4-7" x="70.872041" y="126.416879"/>
</g>
<g fill="rgb(25%, 25%, 25%)" fill-opacity="1">
<use xlink:href="#glyph-5-0" x="76.612143" y="126.416879"/>
</g>
<g fill="rgb(25%, 25%, 25%)" fill-opacity="1">
<use xlink:href="#glyph-4-2" x="85.021462" y="126.416879"/>
</g>
<g fill="rgb(25%, 25%, 25%)" fill-opacity="1">
<use xlink:href="#glyph-4-3" x="94.93113" y="126.416879"/>
<use xlink:href="#glyph-4-8" x="98.888743" y="126.416879"/>
</g>
<g fill="rgb(25%, 25%, 25%)" fill-opacity="1">
<use xlink:href="#glyph-4-1" x="103.769915" y="126.416879"/>
<use xlink:href="#glyph-4-7" x="106.872071" y="126.416879"/>
<use xlink:href="#glyph-4-9" x="111.257065" y="126.416879"/>
</g>
<g fill="rgb(25%, 25%, 25%)" fill-opacity="1">
<use xlink:href="#glyph-4-10" x="117.427327" y="126.416879"/>
<use xlink:href="#glyph-4-5" x="121.38494" y="126.416879"/>
<use xlink:href="#glyph-4-1" x="125.342553" y="126.416879"/>
<use xlink:href="#glyph-4-9" x="128.44471" y="126.416879"/>
</g>
<g fill="rgb(25%, 25%, 25%)" fill-opacity="1">
<use xlink:href="#glyph-4-11" x="134.608023" y="126.416879"/>
<use xlink:href="#glyph-4-12" x="136.855419" y="126.416879"/>
</g>
<g fill="rgb(25%, 25%, 25%)" fill-opacity="1">
<use xlink:href="#glyph-4-13" x="142.641386" y="126.416879"/>
<use xlink:href="#glyph-4-14" x="146.170924" y="126.416879"/>
<use xlink:href="#glyph-4-15" x="148.418319" y="126.416879"/>
<use xlink:href="#glyph-4-12" x="152.375932" y="126.416879"/>
<use xlink:href="#glyph-4-9" x="155.521175" y="126.416879"/>
<use xlink:href="#glyph-4-16" x="159.050712" y="126.416879"/>
<use xlink:href="#glyph-4-8" x="163.435705" y="126.416879"/>
</g>
<g fill="rgb(25%, 25%, 25%)" fill-opacity="1">
<use xlink:href="#glyph-6-0" x="168.323826" y="126.416879"/>
</g>
<g fill="rgb(25%, 25%, 25%)" fill-opacity="1">
<use xlink:href="#glyph-7-0" x="173.312781" y="123.42145"/>
</g>
<g fill="rgb(25%, 25%, 25%)" fill-opacity="1">
<use xlink:href="#glyph-4-2" x="179.81085" y="126.416879"/>
</g>
<g fill="rgb(25%, 25%, 25%)" fill-opacity="1">
<use xlink:href="#glyph-6-0" x="189.720518" y="126.416879"/>
</g>
<g fill="rgb(25%, 25%, 25%)" fill-opacity="1">
<use xlink:href="#glyph-4-8" x="194.712183" y="126.416879"/>
</g>
<g fill="rgb(25%, 25%, 25%)" fill-opacity="1">
<use xlink:href="#glyph-4-5" x="199.593354" y="126.416879"/>
<use xlink:href="#glyph-4-6" x="203.550967" y="126.416879"/>
<use xlink:href="#glyph-4-16" x="207.935961" y="126.416879"/>
</g>
<g fill="rgb(25%, 25%, 25%)" fill-opacity="1">
<use xlink:href="#glyph-4-1" x="214.961679" y="126.416879"/>
<use xlink:href="#glyph-4-7" x="218.063836" y="126.416879"/>
<use xlink:href="#glyph-4-9" x="222.448829" y="126.416879"/>
</g>
<g fill="rgb(25%, 25%, 25%)" fill-opacity="1">
<use xlink:href="#glyph-4-5" x="228.612142" y="126.416879"/>
<use xlink:href="#glyph-4-17" x="232.569755" y="126.416879"/>
<use xlink:href="#glyph-4-10" x="236.954748" y="126.416879"/>
<use xlink:href="#glyph-4-18" x="240.912361" y="126.416879"/>
<use xlink:href="#glyph-4-9" x="247.434257" y="126.416879"/>
<use xlink:href="#glyph-4-6" x="250.963794" y="126.416879"/>
</g>
<g fill="rgb(25%, 25%, 25%)" fill-opacity="1">
<use xlink:href="#glyph-4-1" x="255.13336" y="126.416879"/>
<use xlink:href="#glyph-4-9" x="258.235517" y="126.416879"/>
<use xlink:href="#glyph-4-16" x="261.765054" y="126.416879"/>
</g>
<g fill="rgb(25%, 25%, 25%)" fill-opacity="1">
<use xlink:href="#glyph-4-18" x="26.775905" y="134.359849"/>
<use xlink:href="#glyph-4-15" x="33.297801" y="134.359849"/>
</g>
<g fill="rgb(25%, 25%, 25%)" fill-opacity="1">
<use xlink:href="#glyph-4-16" x="37.470841" y="134.359849"/>
<use xlink:href="#glyph-4-9" x="41.855834" y="134.359849"/>
<use xlink:href="#glyph-4-14" x="45.385372" y="134.359849"/>
</g>
<g fill="rgb(25%, 25%, 25%)" fill-opacity="1">
<use xlink:href="#glyph-4-9" x="50.266543" y="134.359849"/>
<use xlink:href="#glyph-4-19" x="53.796081" y="134.359849"/>
<use xlink:href="#glyph-4-17" x="57.967036" y="134.359849"/>
<use xlink:href="#glyph-4-5" x="62.35203" y="134.359849"/>
<use xlink:href="#glyph-4-14" x="66.309642" y="134.359849"/>
<use xlink:href="#glyph-4-12" x="68.557038" y="134.359849"/>
</g>
<g fill="rgb(25%, 25%, 25%)" fill-opacity="1">
<use xlink:href="#glyph-4-1" x="74.343006" y="134.359849"/>
<use xlink:href="#glyph-4-7" x="77.445163" y="134.359849"/>
<use xlink:href="#glyph-4-9" x="81.830156" y="134.359849"/>
</g>
<g fill="rgb(25%, 25%, 25%)" fill-opacity="1">
<use xlink:href="#glyph-4-20" x="88.000418" y="134.359849"/>
</g>
<g fill="rgb(25%, 25%, 25%)" fill-opacity="1">
<use xlink:href="#glyph-4-5" x="92.378462" y="134.359849"/>
<use xlink:href="#glyph-4-12" x="96.336075" y="134.359849"/>
<use xlink:href="#glyph-4-9" x="99.481318" y="134.359849"/>
</g>
<g fill="rgb(25%, 25%, 25%)" fill-opacity="1">
<use xlink:href="#glyph-4-21" x="105.65158" y="134.359849"/>
<use xlink:href="#glyph-4-22" x="110.560549" y="134.359849"/>
<use xlink:href="#glyph-4-23" x="117.703015" y="134.359849"/>
</g>
<g fill="rgb(25%, 25%, 25%)" fill-opacity="1">
<use xlink:href="#glyph-4-24" x="122.591136" y="134.359849"/>
<use xlink:href="#glyph-4-25" x="128.733601" y="134.359849"/>
<use xlink:href="#glyph-4-5" x="131.835758" y="134.359849"/>
<use xlink:href="#glyph-4-16" x="135.793371" y="134.359849"/>
<use xlink:href="#glyph-4-11" x="140.178364" y="134.359849"/>
<use xlink:href="#glyph-4-9" x="142.42576" y="134.359849"/>
<use xlink:href="#glyph-4-6" x="145.955297" y="134.359849"/>
</g>
<g fill="rgb(25%, 25%, 25%)" fill-opacity="1">
<use xlink:href="#glyph-4-1" x="150.124863" y="134.359849"/>
</g>
<g fill="rgb(25%, 25%, 25%)" fill-opacity="1">
<use xlink:href="#glyph-4-25" x="155.860796" y="134.359849"/>
<use xlink:href="#glyph-4-9" x="158.962953" y="134.359849"/>
</g>
<g fill="rgb(25%, 25%, 25%)" fill-opacity="1">
<use xlink:href="#glyph-4-5" x="162.499439" y="134.359849"/>
</g>
<g fill="rgb(25%, 25%, 25%)" fill-opacity="1">
<use xlink:href="#glyph-4-13" x="166.450103" y="134.359849"/>
</g>
<g fill="rgb(25%, 25%, 25%)" fill-opacity="1">
<use xlink:href="#glyph-4-7" x="169.771162" y="134.359849"/>
<use xlink:href="#glyph-4-9" x="174.156155" y="134.359849"/>
<use xlink:href="#glyph-4-12" x="177.685693" y="134.359849"/>
</g>
<g fill="rgb(25%, 25%, 25%)" fill-opacity="1">
<use xlink:href="#glyph-5-0" x="183.464711" y="134.359849"/>
</g>
<g fill="rgb(25%, 25%, 25%)" fill-opacity="1">
<use xlink:href="#glyph-4-26" x="190.699602" y="134.359849"/>
<use xlink:href="#glyph-4-25" x="195.194394" y="134.359849"/>
<use xlink:href="#glyph-4-12" x="198.296551" y="134.359849"/>
<use xlink:href="#glyph-4-1" x="201.441794" y="134.359849"/>
</g>
<g fill="rgb(25%, 25%, 25%)" fill-opacity="1">
<use xlink:href="#glyph-4-27" x="207.184675" y="134.359849"/>
<use xlink:href="#glyph-4-12" x="210.286832" y="134.359849"/>
<use xlink:href="#glyph-4-9" x="213.432075" y="134.359849"/>
<use xlink:href="#glyph-4-13" x="216.961612" y="134.359849"/>
</g>
<g fill="rgb(25%, 25%, 25%)" fill-opacity="1">
<use xlink:href="#glyph-4-7" x="220.275722" y="134.359849"/>
</g>
<g fill="rgb(25%, 25%, 25%)" fill-opacity="1">
<use xlink:href="#glyph-8-0" x="224.663566" y="131.363423"/>
</g>
<g fill="rgb(25%, 25%, 25%)" fill-opacity="1">
<use xlink:href="#glyph-4-3" x="229.894108" y="134.359849"/>
</g>
<g fill="rgb(25%, 25%, 25%)" fill-opacity="1">
<use xlink:href="#glyph-4-2" x="238.695366" y="134.359849"/>
</g>
<g fill="rgb(25%, 25%, 25%)" fill-opacity="1">
<use xlink:href="#glyph-4-28" x="249.633527" y="134.359849"/>
<use xlink:href="#glyph-4-29" x="253.59114" y="134.359849"/>
<use xlink:href="#glyph-4-8" x="256.693297" y="134.359849"/>
</g>
<g fill="rgb(25%, 25%, 25%)" fill-opacity="1">
<use xlink:href="#glyph-4-1" x="31.591909" y="142.301822"/>
<use xlink:href="#glyph-4-7" x="34.694066" y="142.301822"/>
<use xlink:href="#glyph-4-9" x="39.07906" y="142.301822"/>
<use xlink:href="#glyph-4-6" x="42.608597" y="142.301822"/>
</g>
<g fill="rgb(25%, 25%, 25%)" fill-opacity="1">
<use xlink:href="#glyph-4-15" x="49.634315" y="142.301822"/>
</g>
<g fill="rgb(25%, 25%, 25%)" fill-opacity="1">
<use xlink:href="#glyph-4-30" x="53.584979" y="142.301822"/>
</g>
<g fill="rgb(25%, 25%, 25%)" fill-opacity="1">
<use xlink:href="#glyph-4-9" x="58.1854" y="142.301822"/>
<use xlink:href="#glyph-4-6" x="61.714937" y="142.301822"/>
<use xlink:href="#glyph-4-12" x="66.09993" y="142.301822"/>
</g>
<g fill="rgb(25%, 25%, 25%)" fill-opacity="1">
<use xlink:href="#glyph-4-1" x="71.885898" y="142.301822"/>
<use xlink:href="#glyph-4-7" x="74.988055" y="142.301822"/>
<use xlink:href="#glyph-4-9" x="79.373048" y="142.301822"/>
</g>
<g fill="rgb(25%, 25%, 25%)" fill-opacity="1">
<use xlink:href="#glyph-4-31" x="85.536361" y="142.301822"/>
<use xlink:href="#glyph-4-11" x="89.707317" y="142.301822"/>
<use xlink:href="#glyph-4-12" x="91.954713" y="142.301822"/>
<use xlink:href="#glyph-4-17" x="95.099955" y="142.301822"/>
<use xlink:href="#glyph-4-5" x="99.484948" y="142.301822"/>
<use xlink:href="#glyph-4-14" x="103.442561" y="142.301822"/>
</g>
<g fill="rgb(25%, 25%, 25%)" fill-opacity="1">
<use xlink:href="#glyph-4-30" x="108.330682" y="142.301822"/>
<use xlink:href="#glyph-4-5" x="112.715675" y="142.301822"/>
<use xlink:href="#glyph-4-1" x="116.673288" y="142.301822"/>
<use xlink:href="#glyph-4-7" x="119.775445" y="142.301822"/>
<use xlink:href="#glyph-4-23" x="124.160438" y="142.301822"/>
</g>
<g fill="rgb(25%, 25%, 25%)" fill-opacity="1">
<use xlink:href="#glyph-4-32" x="130.361973" y="142.301822"/>
<use xlink:href="#glyph-4-33" x="136.029107" y="142.301822"/>
<use xlink:href="#glyph-4-23" x="138.490541" y="142.301822"/>
</g>
<g fill="rgb(25%, 25%, 25%)" fill-opacity="1">
<use xlink:href="#glyph-4-21" x="143.378662" y="142.301822"/>
<use xlink:href="#glyph-4-15" x="148.287631" y="142.301822"/>
<use xlink:href="#glyph-4-34" x="152.245243" y="142.301822"/>
<use xlink:href="#glyph-4-0" x="158.008973" y="142.301822"/>
<use xlink:href="#glyph-4-35" x="163.869298" y="142.301822"/>
<use xlink:href="#glyph-4-12" x="166.116694" y="142.301822"/>
</g>
<g fill="rgb(25%, 25%, 25%)" fill-opacity="1">
<use xlink:href="#glyph-4-36" x="171.895712" y="142.301822"/>
<use xlink:href="#glyph-4-9" x="175.425249" y="142.301822"/>
<use xlink:href="#glyph-4-25" x="178.954787" y="142.301822"/>
<use xlink:href="#glyph-4-15" x="182.056944" y="142.301822"/>
<use xlink:href="#glyph-4-37" x="186.014556" y="142.301822"/>
<use xlink:href="#glyph-4-11" x="188.689333" y="142.301822"/>
<use xlink:href="#glyph-4-6" x="190.936729" y="142.301822"/>
<use xlink:href="#glyph-4-11" x="195.321722" y="142.301822"/>
<use xlink:href="#glyph-4-1" x="197.569118" y="142.301822"/>
<use xlink:href="#glyph-4-11" x="200.671275" y="142.301822"/>
<use xlink:href="#glyph-4-5" x="202.918671" y="142.301822"/>
<use xlink:href="#glyph-4-14" x="206.876284" y="142.301822"/>
<use xlink:href="#glyph-4-11" x="209.12368" y="142.301822"/>
<use xlink:href="#glyph-4-36" x="211.371076" y="142.301822"/>
<use xlink:href="#glyph-4-9" x="214.900613" y="142.301822"/>
</g>
<g fill="rgb(25%, 25%, 25%)" fill-opacity="1">
<use xlink:href="#glyph-4-16" x="218.4371" y="142.301822"/>
</g>
<g fill="rgb(25%, 25%, 25%)" fill-opacity="1">
<use xlink:href="#glyph-4-5" x="225.455869" y="142.301822"/>
<use xlink:href="#glyph-4-16" x="229.413481" y="142.301822"/>
<use xlink:href="#glyph-4-5" x="233.798475" y="142.301822"/>
<use xlink:href="#glyph-4-30" x="237.756088" y="142.301822"/>
<use xlink:href="#glyph-4-1" x="242.141081" y="142.301822"/>
<use xlink:href="#glyph-4-9" x="245.243238" y="142.301822"/>
<use xlink:href="#glyph-4-25" x="248.772775" y="142.301822"/>
<use xlink:href="#glyph-4-23" x="251.874932" y="142.301822"/>
</g>
</svg>
